<svg xmlns="http://www.w3.org/2000/svg" xmlns:xlink="http://www.w3.org/1999/xlink" width="500" zoomAndPan="magnify" viewBox="0 0 375 374.999991" height="500" preserveAspectRatio="xMidYMid meet" version="1.0"><defs><g/><clipPath id="26afd771e2"><path d="M 222.011719 326.640625 L 262.5 326.640625 L 262.5 375 L 222.011719 375 Z M 222.011719 326.640625 " clip-rule="nonzero"/></clipPath><clipPath id="4b5c78b5fa"><path d="M 112.5 322 L 150 322 L 150 375 L 112.5 375 Z M 112.5 322 " clip-rule="nonzero"/></clipPath><clipPath id="7270711fe8"><path d="M 140.675781 329.84375 L 168.847656 329.84375 L 168.847656 375 L 140.675781 375 Z M 140.675781 329.84375 " clip-rule="nonzero"/></clipPath><clipPath id="a071010803"><path d="M 139.613281 321.632812 L 170.726562 321.632812 L 170.726562 375 L 139.613281 375 Z M 139.613281 321.632812 " clip-rule="nonzero"/></clipPath><clipPath id="f18f6a3aa3"><path d="M 19 74.390625 L 110 74.390625 L 110 246.890625 L 19 246.890625 Z M 19 74.390625 " clip-rule="nonzero"/></clipPath><clipPath id="4493591456"><path d="M 265 74.390625 L 356 74.390625 L 356 246.890625 L 265 246.890625 Z M 265 74.390625 " clip-rule="nonzero"/></clipPath></defs><rect x="-37.5" width="450" fill="#ffffff" y="-37.499999" height="449.999989" fill-opacity="1"/><rect x="-37.5" width="450" fill="#000000" y="-37.499999" height="449.999989" fill-opacity="1"/><g fill="#ffffff" fill-opacity="1"><g transform="translate(123.104507, 206.704066)"><g><path d="M 15.042969 -128.011719 C 15.839844 -113.769531 16 -107.847656 16 -98.085938 L 16 6.242188 C 16 23.363281 12.800781 28.480469 3.199219 33.761719 L 4 35.203125 C 16.320312 30.722656 25.121094 24.800781 25.121094 4.800781 L 25.121094 -98.085938 C 25.121094 -107.847656 25.28125 -113.769531 26.082031 -128.011719 Z M 15.042969 -128.011719 "/></g></g></g><g fill="#ffffff" fill-opacity="1"><g transform="translate(147.425335, 206.704066)"><g><path d="M 11.199219 0 L 22.242188 0 C 21.441406 -14.242188 21.28125 -20.160156 21.28125 -30.082031 L 21.28125 -59.203125 L 34.882812 -59.203125 C 62.085938 -59.203125 85.445312 -66.085938 85.445312 -93.605469 C 85.445312 -121.128906 62.085938 -128.011719 34.882812 -128.011719 L 11.199219 -128.011719 C 12.160156 -113.769531 12.160156 -107.847656 12.160156 -98.085938 L 12.160156 -30.082031 C 12.160156 -20.160156 12.160156 -14.242188 11.199219 0 Z M 21.28125 -61.285156 L 21.28125 -126.089844 L 34.882812 -126.089844 C 55.203125 -126.089844 75.6875 -119.6875 75.6875 -93.605469 C 75.6875 -67.683594 55.203125 -61.285156 34.882812 -61.285156 Z M 21.28125 -61.285156 "/></g></g></g><path fill="#1eb6de" d="M 215.902344 321.242188 L 215.878906 321.425781 C 215.667969 321.335938 215.445312 321.242188 215.214844 321.148438 C 213.542969 320.4375 212.398438 319.988281 211.714844 320.171875 C 211.648438 320.1875 211.554688 320.226562 211.445312 320.277344 C 211.464844 319.316406 211.511719 317.984375 211.609375 317.511719 C 211.664062 317.234375 211.488281 316.960938 211.210938 316.902344 C 210.933594 316.847656 210.664062 317.027344 210.605469 317.304688 C 210.453125 318.046875 210.417969 320.171875 210.410156 320.863281 C 209.402344 321.492188 208.035156 322.449219 206.878906 323.335938 C 207.464844 319.964844 208.636719 318.148438 209.519531 316.78125 L 209.574219 316.699219 C 209.671875 316.546875 209.765625 316.398438 209.859375 316.25 C 210.566406 315.121094 211.175781 314.144531 212.4375 314.003906 C 213.226562 313.914062 214.089844 314.007812 214.996094 314.277344 C 215.222656 314.355469 216.183594 314.851562 216.535156 315.105469 C 216.484375 315.582031 216.335938 316.992188 215.882812 321.242188 L 215.902344 321.242188 " fill-opacity="1" fill-rule="nonzero"/><path fill="#1eb6de" d="M 227.296875 325.527344 C 226.949219 326.464844 226.640625 327.171875 226.433594 327.394531 C 225.96875 327.902344 225.3125 328.203125 224.628906 328.214844 C 224.007812 328.226562 223.429688 327.992188 223 327.558594 C 222.28125 326.824219 221.957031 325.953125 222.574219 323.882812 L 224.695312 317.085938 C 224.964844 316.96875 225.488281 316.765625 226.0625 316.695312 C 226.722656 316.613281 227.660156 316.730469 228.3125 317.308594 C 228.84375 317.773438 229.132812 318.484375 229.179688 319.417969 C 228.921875 320.625 227.699219 324.296875 227.296875 325.527344 " fill-opacity="1" fill-rule="nonzero"/><path fill="#1eb6de" d="M 221.382812 323.117188 C 220.902344 321.859375 219.386719 321.847656 218.171875 321.839844 C 217.710938 321.835938 217.238281 321.832031 216.867188 321.765625 L 217.726562 315.277344 C 218.128906 315.039062 219.183594 314.5 220.425781 314.691406 C 220.855469 314.753906 222.328125 315.101562 223.625 316.851562 L 221.503906 323.460938 C 221.46875 323.351562 221.429688 323.238281 221.382812 323.117188 " fill-opacity="1" fill-rule="nonzero"/><path fill="#1eb6de" d="M 212.277344 340.296875 C 212.324219 339.6875 212.335938 339.144531 212.328125 338.660156 C 215.78125 339.023438 217.929688 337.328125 219.136719 335.785156 C 220.503906 334.046875 220.972656 332.171875 220.992188 332.09375 C 221.058594 331.816406 220.890625 331.535156 220.617188 331.46875 C 220.339844 331.402344 220.0625 331.570312 219.996094 331.847656 C 219.992188 331.867188 219.550781 333.609375 218.3125 335.171875 C 216.757812 337.140625 214.683594 337.953125 212.148438 337.597656 C 211.949219 337.164062 211.40625 336.304688 209.839844 334.519531 C 208.488281 332.980469 206.816406 331.269531 205.253906 329.824219 C 204.332031 328.972656 204.871094 326.757812 205.515625 325.882812 C 206.25 324.878906 211.34375 321.34375 211.980469 321.167969 C 212.375 321.0625 213.964844 321.734375 214.820312 322.097656 C 215.339844 322.316406 215.828125 322.523438 216.230469 322.667969 C 216.78125 322.859375 217.484375 322.867188 218.164062 322.871094 C 219.390625 322.878906 220.214844 322.929688 220.425781 323.488281 C 220.863281 324.621094 220.578125 324.960938 219.695312 325.769531 C 218.921875 326.480469 216.035156 327.457031 212.523438 326.671875 C 212.476562 326.652344 212.425781 326.644531 212.375 326.640625 C 212.261719 326.625 212.148438 326.648438 212.054688 326.703125 C 210.441406 327.164062 209.347656 327.277344 209.335938 327.277344 C 209.054688 327.304688 208.847656 327.558594 208.878906 327.839844 C 208.898438 328.070312 209.070312 328.25 209.285156 328.296875 C 209.332031 328.304688 209.382812 328.308594 209.4375 328.304688 C 209.476562 328.300781 210.195312 328.226562 211.335938 327.957031 C 210.96875 328.621094 210.539062 329.265625 210.222656 329.445312 C 209.976562 329.585938 209.890625 329.898438 210.027344 330.148438 C 210.167969 330.394531 210.480469 330.480469 210.726562 330.339844 C 211.5 329.902344 212.25 328.480469 212.601562 327.742188 C 214.578125 328.136719 216.230469 327.996094 217.300781 327.796875 C 218.636719 327.550781 219.789062 327.078125 220.386719 326.53125 C 220.714844 326.230469 221.007812 325.941406 221.226562 325.632812 C 221.203125 326.710938 221.542969 327.542969 222.273438 328.28125 C 222.722656 328.742188 223.289062 329.046875 223.910156 329.175781 C 224.148438 329.226562 224.398438 329.25 224.648438 329.246094 C 225.609375 329.226562 226.535156 328.808594 227.1875 328.09375 C 227.359375 327.90625 227.558594 327.546875 227.773438 327.074219 C 227.867188 327.199219 227.980469 327.320312 228.101562 327.433594 C 228.511719 327.8125 229.023438 328.082031 229.519531 328.183594 C 229.609375 328.203125 229.699219 328.214844 229.789062 328.222656 C 230.902344 328.308594 232.03125 327.058594 233.027344 325.671875 C 232.957031 326.398438 232.886719 327.144531 232.859375 327.652344 C 232.816406 328.347656 231.851562 333.292969 231.089844 334.945312 C 230.820312 335.523438 229.921875 336.300781 228.972656 337.125 C 227.78125 338.152344 226.433594 339.320312 225.746094 340.585938 C 224.832031 342.257812 225.027344 345.3125 224.898438 347.003906 C 224.699219 349.632812 224.566406 350.992188 224.355469 353.132812 C 224.121094 355.550781 223.964844 357.980469 223.730469 360.394531 C 223.605469 361.667969 223.710938 374.019531 223.625 375.277344 L 205.425781 375.25 C 207.085938 367.652344 211.976562 343.605469 212.089844 342.875 C 212.261719 341.757812 212.222656 340.945312 212.277344 340.296875 " fill-opacity="1" fill-rule="nonzero"/><path fill="#1eb6de" d="M 232.5625 324.542969 C 231.867188 325.558594 230.597656 327.253906 229.871094 327.195312 C 229.171875 327.140625 228.300781 326.421875 228.3125 325.730469 C 229.105469 323.589844 229.925781 320.71875 230.175781 319.835938 C 230.402344 319.605469 230.644531 319.464844 230.902344 319.449219 C 231.246094 319.433594 231.9375 319.453125 232.589844 319.585938 C 233.117188 319.695312 233.621094 319.882812 233.894531 320.195312 C 234.074219 320.394531 234.132812 320.636719 234.082031 320.945312 C 233.96875 321.644531 233.703125 322.398438 233.386719 323.078125 C 233.332031 323.144531 233.289062 323.226562 233.273438 323.320312 C 233.054688 323.761719 232.824219 324.160156 232.601562 324.480469 L 232.5625 324.542969 " fill-opacity="1" fill-rule="nonzero"/><path fill="#680a20" d="M 232.601562 324.480469 L 232.5625 324.542969 C 231.867188 325.558594 230.597656 327.253906 229.871094 327.195312 C 229.171875 327.140625 228.300781 326.421875 228.3125 325.730469 C 229.105469 323.589844 229.925781 320.71875 230.175781 319.835938 C 230.402344 319.605469 230.644531 319.464844 230.902344 319.449219 C 231.246094 319.433594 231.9375 319.453125 232.589844 319.585938 C 233.117188 319.695312 233.621094 319.882812 233.894531 320.195312 C 234.074219 320.394531 234.132812 320.636719 234.082031 320.945312 C 233.96875 321.644531 233.703125 322.398438 233.386719 323.078125 C 233.332031 323.144531 233.289062 323.226562 233.273438 323.320312 C 233.054688 323.761719 232.824219 324.160156 232.601562 324.480469 Z M 227.296875 325.527344 C 226.949219 326.464844 226.640625 327.171875 226.433594 327.394531 C 225.96875 327.902344 225.3125 328.203125 224.628906 328.214844 C 224.007812 328.226562 223.429688 327.992188 223 327.558594 C 222.28125 326.824219 221.957031 325.953125 222.574219 323.882812 L 224.695312 317.085938 C 224.964844 316.96875 225.488281 316.765625 226.0625 316.695312 C 226.722656 316.613281 227.660156 316.730469 228.3125 317.308594 C 228.84375 317.773438 229.132812 318.484375 229.179688 319.417969 C 228.921875 320.625 227.699219 324.296875 227.296875 325.527344 Z M 221.382812 323.117188 C 220.902344 321.859375 219.386719 321.847656 218.171875 321.839844 C 217.710938 321.835938 217.238281 321.832031 216.867188 321.765625 L 217.726562 315.277344 C 218.128906 315.039062 219.183594 314.5 220.425781 314.691406 C 220.855469 314.753906 222.328125 315.101562 223.625 316.851562 L 221.503906 323.460938 C 221.46875 323.351562 221.429688 323.238281 221.382812 323.117188 Z M 215.882812 321.242188 L 215.902344 321.242188 L 215.878906 321.425781 C 215.667969 321.335938 215.445312 321.242188 215.214844 321.148438 C 213.542969 320.4375 212.398438 319.988281 211.714844 320.171875 C 211.648438 320.1875 211.554688 320.226562 211.445312 320.277344 C 211.464844 319.316406 211.511719 317.984375 211.609375 317.511719 C 211.664062 317.234375 211.488281 316.960938 211.210938 316.902344 C 210.933594 316.847656 210.664062 317.027344 210.605469 317.304688 C 210.453125 318.046875 210.417969 320.171875 210.410156 320.863281 C 209.402344 321.492188 208.035156 322.449219 206.878906 323.335938 C 207.464844 319.964844 208.636719 318.148438 209.519531 316.78125 L 209.574219 316.699219 C 209.671875 316.546875 209.765625 316.398438 209.859375 316.25 C 210.566406 315.121094 211.175781 314.144531 212.4375 314.003906 C 213.226562 313.914062 214.089844 314.007812 214.996094 314.277344 C 215.222656 314.355469 216.183594 314.851562 216.535156 315.105469 C 216.484375 315.582031 216.335938 316.992188 215.882812 321.242188 Z M 234.660156 319.507812 C 233.613281 318.324219 231.132812 318.40625 230.851562 318.421875 C 230.59375 318.433594 230.347656 318.5 230.117188 318.617188 C 229.953125 317.75 229.574219 317.050781 228.988281 316.535156 C 227.847656 315.523438 226.367188 315.617188 225.9375 315.671875 C 225.28125 315.753906 224.695312 315.964844 224.351562 316.113281 C 223.316406 314.777344 221.933594 313.875 220.578125 313.667969 C 219.066406 313.441406 217.808594 314.035156 217.253906 314.363281 C 217.066406 314.207031 216.800781 314.046875 216.445312 313.851562 C 216.035156 313.621094 215.476562 313.34375 215.285156 313.285156 C 214.246094 312.976562 213.246094 312.875 212.320312 312.980469 C 210.574219 313.175781 209.769531 314.457031 208.992188 315.699219 C 208.898438 315.84375 208.808594 315.992188 208.714844 316.136719 L 208.660156 316.21875 C 207.691406 317.71875 206.238281 319.972656 205.703125 324.28125 C 205.226562 324.6875 204.863281 325.035156 204.6875 325.273438 C 203.859375 326.402344 203.085938 329.222656 204.558594 330.585938 C 207.949219 333.722656 211.128906 337.429688 211.257812 338.152344 C 211.496094 339.476562 211.257812 341.105469 211.097656 342.429688 C 210.898438 344.046875 210.660156 345.398438 210.273438 346.976562 C 209.816406 348.835938 205.628906 370.074219 204.503906 375.285156 L 205.515625 375.25 C 207.175781 367.652344 211.976562 343.605469 212.089844 342.875 C 212.261719 341.757812 212.222656 340.945312 212.277344 340.296875 C 212.324219 339.6875 212.335938 339.144531 212.328125 338.660156 C 215.78125 339.023438 217.929688 337.328125 219.136719 335.785156 C 220.503906 334.046875 220.972656 332.171875 220.992188 332.09375 C 221.058594 331.816406 220.890625 331.535156 220.617188 331.46875 C 220.339844 331.402344 220.0625 331.570312 219.996094 331.847656 C 219.992188 331.867188 219.550781 333.609375 218.3125 335.171875 C 216.757812 337.140625 214.683594 337.953125 212.148438 337.597656 C 211.949219 337.164062 211.40625 336.304688 209.839844 334.519531 C 208.488281 332.980469 206.816406 331.269531 205.253906 329.824219 C 204.332031 328.972656 204.871094 326.757812 205.515625 325.882812 C 206.25 324.878906 211.34375 321.34375 211.980469 321.167969 C 212.375 321.0625 213.964844 321.734375 214.820312 322.097656 C 215.339844 322.316406 215.828125 322.523438 216.230469 322.667969 C 216.78125 322.859375 217.484375 322.867188 218.164062 322.871094 C 219.390625 322.878906 220.214844 322.929688 220.425781 323.488281 C 220.863281 324.621094 220.578125 324.960938 219.695312 325.769531 C 218.921875 326.480469 216.035156 327.457031 212.523438 326.671875 C 212.476562 326.652344 212.425781 326.644531 212.375 326.640625 C 212.261719 326.625 212.148438 326.648438 212.054688 326.703125 C 210.441406 327.164062 209.347656 327.277344 209.335938 327.277344 C 209.054688 327.304688 208.847656 327.558594 208.878906 327.839844 C 208.898438 328.070312 209.070312 328.25 209.285156 328.296875 C 209.332031 328.304688 209.382812 328.308594 209.4375 328.304688 C 209.476562 328.300781 210.195312 328.226562 211.335938 327.957031 C 210.96875 328.621094 210.539062 329.265625 210.222656 329.445312 C 209.976562 329.585938 209.890625 329.898438 210.027344 330.148438 C 210.167969 330.394531 210.480469 330.480469 210.726562 330.339844 C 211.5 329.902344 212.25 328.480469 212.601562 327.742188 C 214.578125 328.136719 216.230469 327.996094 217.300781 327.796875 C 218.636719 327.550781 219.789062 327.078125 220.386719 326.53125 C 220.714844 326.230469 221.007812 325.941406 221.226562 325.632812 C 221.203125 326.710938 221.542969 327.542969 222.273438 328.28125 C 222.722656 328.742188 223.289062 329.046875 223.910156 329.175781 C 224.148438 329.226562 224.398438 329.25 224.648438 329.246094 C 225.609375 329.226562 226.535156 328.808594 227.1875 328.09375 C 227.359375 327.90625 227.558594 327.546875 227.773438 327.074219 C 227.867188 327.199219 227.980469 327.320312 228.101562 327.433594 C 228.511719 327.8125 229.023438 328.082031 229.519531 328.183594 C 229.609375 328.203125 229.699219 328.214844 229.789062 328.222656 C 230.902344 328.308594 232.03125 327.058594 233.027344 325.671875 C 232.957031 326.398438 232.886719 327.144531 232.859375 327.652344 C 232.816406 328.347656 231.851562 333.292969 231.089844 334.945312 C 230.820312 335.523438 229.921875 336.300781 228.972656 337.125 C 227.78125 338.152344 226.433594 339.320312 225.746094 340.585938 C 224.832031 342.257812 225.027344 345.3125 224.898438 347.003906 C 224.699219 349.632812 224.566406 350.992188 224.355469 353.132812 C 224.121094 355.550781 223.964844 357.980469 223.730469 360.394531 C 223.605469 361.667969 223.542969 369.398438 223.457031 370.65625 L 223.457031 375.324219 L 224.5 375.285156 C 224.789062 368.308594 224.972656 359.382812 225.152344 357.09375 C 225.371094 354.273438 225.589844 351.457031 225.8125 348.636719 C 225.917969 347.261719 226.027344 345.882812 226.132812 344.507812 C 226.222656 343.339844 226.070312 342.132812 226.644531 341.082031 C 227.246094 339.980469 228.519531 338.878906 229.640625 337.90625 C 230.722656 336.96875 231.660156 336.160156 232.019531 335.378906 C 232.863281 333.546875 233.835938 328.488281 233.882812 327.714844 C 233.949219 326.605469 234.199219 324.246094 234.265625 323.625 C 234.667969 322.78125 234.96875 321.886719 235.09375 321.113281 C 235.195312 320.496094 235.046875 319.941406 234.660156 319.507812 " fill-opacity="1" fill-rule="nonzero"/><path fill="#9f2899" d="M 243.878906 335.667969 L 243.804688 335.835938 C 243.625 335.691406 243.441406 335.535156 243.25 335.378906 C 241.855469 334.210938 240.886719 333.445312 240.179688 333.421875 C 240.109375 333.421875 240.011719 333.429688 239.894531 333.445312 C 240.1875 332.53125 240.617188 331.273438 240.84375 330.847656 C 240.980469 330.597656 240.886719 330.285156 240.636719 330.148438 C 240.390625 330.011719 240.078125 330.105469 239.941406 330.355469 C 239.582031 331.023438 238.9375 333.046875 238.734375 333.707031 C 237.585938 334.015625 236.003906 334.53125 234.640625 335.042969 C 236.171875 331.988281 237.816406 330.589844 239.058594 329.539062 L 239.132812 329.476562 C 239.265625 329.359375 239.402344 329.242188 239.53125 329.128906 C 240.535156 328.253906 241.398438 327.5 242.644531 327.730469 C 243.429688 327.875 244.226562 328.214844 245.019531 328.738281 C 245.214844 328.878906 245.988281 329.632812 246.253906 329.980469 C 246.066406 330.417969 245.515625 331.726562 243.859375 335.660156 L 243.878906 335.667969 " fill-opacity="1" fill-rule="nonzero"/><path fill="#9f2899" d="M 253.550781 343.085938 C 252.949219 343.882812 252.449219 344.472656 252.1875 344.625 C 251.597656 344.976562 250.882812 345.070312 250.226562 344.882812 C 249.625 344.710938 249.136719 344.320312 248.855469 343.78125 C 248.378906 342.871094 248.320312 341.941406 249.503906 340.140625 L 253.492188 334.25 C 253.785156 334.21875 254.34375 334.175781 254.917969 334.273438 C 255.570312 334.390625 256.433594 334.777344 256.894531 335.519531 C 257.265625 336.117188 257.335938 336.882812 257.113281 337.789062 C 256.519531 338.871094 254.292969 342.027344 253.550781 343.085938 " fill-opacity="1" fill-rule="nonzero"/><path fill="#9f2899" d="M 248.585938 339.058594 C 248.488281 337.714844 247.042969 337.265625 245.878906 336.902344 C 245.441406 336.765625 244.988281 336.621094 244.652344 336.449219 L 247.34375 330.492188 C 247.796875 330.378906 248.964844 330.171875 250.09375 330.714844 C 250.492188 330.902344 251.800781 331.664062 252.535156 333.714844 L 248.601562 339.421875 C 248.601562 339.308594 248.597656 339.1875 248.585938 339.058594 " fill-opacity="1" fill-rule="nonzero"/><path fill="#9f2899" d="M 223.007812 375.242188 C 226.785156 368.449219 233.679688 355.929688 233.996094 355.265625 C 234.484375 354.242188 234.679688 353.457031 234.921875 352.847656 C 235.140625 352.28125 235.308594 351.765625 235.4375 351.296875 C 238.640625 352.652344 241.183594 351.65625 242.785156 350.53125 C 244.59375 349.261719 245.582031 347.605469 245.625 347.535156 C 245.769531 347.292969 245.6875 346.976562 245.445312 346.832031 C 245.199219 346.683594 244.886719 346.765625 244.742188 347.011719 C 244.730469 347.03125 243.808594 348.570312 242.171875 349.703125 C 240.117188 351.132812 237.898438 351.308594 235.574219 350.230469 C 235.507812 349.757812 235.238281 348.773438 234.25 346.613281 C 233.398438 344.746094 232.292969 342.621094 231.214844 340.78125 C 230.578125 339.699219 231.734375 337.734375 232.597656 337.085938 C 233.59375 336.335938 239.488281 334.4375 240.148438 334.453125 C 240.554688 334.46875 241.882812 335.574219 242.597656 336.171875 C 243.03125 336.53125 243.4375 336.875 243.785156 337.128906 C 244.257812 337.472656 244.925781 337.683594 245.574219 337.886719 C 246.746094 338.253906 247.519531 338.539062 247.5625 339.136719 C 247.652344 340.347656 247.285156 340.589844 246.203125 341.105469 C 245.261719 341.558594 242.214844 341.65625 239.082031 339.878906 C 239.039062 339.847656 238.996094 339.824219 238.945312 339.808594 C 238.84375 339.761719 238.730469 339.75 238.625 339.773438 C 236.945312 339.746094 235.867188 339.535156 235.855469 339.535156 C 235.578125 339.476562 235.308594 339.660156 235.253906 339.9375 C 235.210938 340.164062 235.320312 340.386719 235.511719 340.492188 C 235.554688 340.515625 235.605469 340.535156 235.65625 340.542969 C 235.695312 340.550781 236.40625 340.691406 237.574219 340.765625 C 237.03125 341.296875 236.433594 341.785156 236.078125 341.863281 C 235.804688 341.925781 235.628906 342.203125 235.691406 342.480469 C 235.753906 342.757812 236.027344 342.933594 236.304688 342.871094 C 237.171875 342.675781 238.300781 341.53125 238.847656 340.925781 C 240.625 341.878906 242.25 342.226562 243.328125 342.351562 C 244.679688 342.503906 245.917969 342.386719 246.644531 342.039062 C 247.050781 341.84375 247.410156 341.65625 247.710938 341.421875 C 247.378906 342.449219 247.464844 343.339844 247.949219 344.261719 C 248.246094 344.832031 248.699219 345.292969 249.257812 345.59375 C 249.472656 345.710938 249.703125 345.804688 249.945312 345.875 C 250.871094 346.140625 251.878906 346.007812 252.707031 345.515625 C 252.925781 345.386719 253.21875 345.097656 253.558594 344.707031 C 253.617188 344.855469 253.6875 345.003906 253.773438 345.148438 C 254.054688 345.628906 254.46875 346.035156 254.910156 346.277344 C 254.992188 346.324219 255.078125 346.363281 255.160156 346.394531 C 256.199219 346.800781 257.640625 345.933594 258.992188 344.894531 C 258.714844 345.570312 258.4375 346.265625 258.261719 346.742188 C 258.019531 347.394531 255.675781 351.847656 254.46875 353.207031 C 254.042969 353.683594 252.960938 354.167969 251.8125 354.675781 C 250.378906 355.316406 248.753906 356.039062 247.726562 357.050781 C 246.375 358.382812 245.679688 361.363281 245.070312 362.945312 C 244.121094 365.402344 243.601562 366.664062 242.785156 368.65625 C 241.863281 370.898438 242.15625 373.902344 240.148438 375.25 L 223.007812 375.242188 " fill-opacity="1" fill-rule="nonzero"/><path fill="#9f2899" d="M 258.875 343.679688 C 257.917969 344.449219 256.210938 345.699219 255.535156 345.433594 C 254.878906 345.175781 254.253906 344.238281 254.464844 343.578125 C 255.839844 341.761719 257.453125 339.253906 257.945312 338.480469 C 258.226562 338.324219 258.5 338.261719 258.753906 338.324219 C 259.089844 338.40625 259.742188 338.625 260.328125 338.945312 C 260.800781 339.203125 261.230469 339.53125 261.402344 339.90625 C 261.515625 340.152344 261.503906 340.398438 261.367188 340.679688 C 261.054688 341.316406 260.582031 341.960938 260.089844 342.519531 C 260.011719 342.566406 259.953125 342.632812 259.90625 342.714844 C 259.574219 343.074219 259.234375 343.390625 258.929688 343.632812 L 258.875 343.679688 " fill-opacity="1" fill-rule="nonzero"/><g clip-path="url(#26afd771e2)"><path fill="#680a20" d="M 258.929688 343.632812 L 258.875 343.679688 C 257.917969 344.449219 256.210938 345.699219 255.535156 345.433594 C 254.878906 345.175781 254.253906 344.238281 254.464844 343.578125 C 255.839844 341.761719 257.453125 339.253906 257.945312 338.480469 C 258.226562 338.324219 258.5 338.261719 258.753906 338.324219 C 259.085938 338.410156 259.742188 338.625 260.328125 338.945312 C 260.800781 339.203125 261.230469 339.53125 261.402344 339.90625 C 261.515625 340.152344 261.503906 340.398438 261.367188 340.679688 C 261.054688 341.316406 260.582031 341.960938 260.085938 342.519531 C 260.011719 342.566406 259.949219 342.632812 259.90625 342.714844 C 259.574219 343.074219 259.234375 343.390625 258.929688 343.632812 Z M 253.550781 343.085938 C 252.949219 343.882812 252.449219 344.472656 252.1875 344.625 C 251.597656 344.976562 250.882812 345.070312 250.226562 344.882812 C 249.625 344.710938 249.136719 344.320312 248.855469 343.78125 C 248.378906 342.871094 248.320312 341.945312 249.503906 340.140625 L 253.492188 334.25 C 253.785156 334.21875 254.34375 334.175781 254.914062 334.273438 C 255.570312 334.390625 256.433594 334.777344 256.894531 335.519531 C 257.265625 336.117188 257.335938 336.882812 257.113281 337.789062 C 256.515625 338.871094 254.292969 342.027344 253.550781 343.085938 Z M 245.878906 336.902344 C 245.441406 336.765625 244.988281 336.621094 244.652344 336.449219 L 247.34375 330.492188 C 247.796875 330.378906 248.964844 330.171875 250.097656 330.714844 C 250.492188 330.902344 251.800781 331.664062 252.535156 333.714844 L 248.601562 339.421875 C 248.601562 339.308594 248.597656 339.1875 248.585938 339.058594 C 248.488281 337.714844 247.042969 337.265625 245.878906 336.902344 Z M 243.804688 335.835938 C 243.628906 335.691406 243.441406 335.535156 243.25 335.378906 C 241.855469 334.210938 240.886719 333.445312 240.183594 333.421875 C 240.109375 333.421875 240.011719 333.429688 239.894531 333.445312 C 240.1875 332.53125 240.617188 331.273438 240.84375 330.847656 C 240.980469 330.597656 240.886719 330.285156 240.640625 330.148438 C 240.390625 330.011719 240.078125 330.105469 239.945312 330.355469 C 239.582031 331.023438 238.9375 333.046875 238.734375 333.707031 C 237.585938 334.015625 236.003906 334.53125 234.640625 335.042969 C 236.171875 331.988281 237.820312 330.589844 239.058594 329.539062 L 239.132812 329.476562 C 239.265625 329.359375 239.402344 329.242188 239.535156 329.128906 C 240.535156 328.253906 241.402344 327.5 242.648438 327.730469 C 243.429688 327.875 244.226562 328.214844 245.019531 328.738281 C 245.214844 328.878906 245.988281 329.632812 246.253906 329.980469 C 246.070312 330.417969 245.515625 331.726562 243.863281 335.660156 L 243.878906 335.667969 Z M 223.210938 375.269531 C 227.207031 368.007812 233.707031 355.875 234 355.265625 C 234.484375 354.242188 234.683594 353.457031 234.921875 352.847656 C 235.140625 352.28125 235.308594 351.765625 235.441406 351.296875 C 238.640625 352.652344 241.183594 351.65625 242.785156 350.53125 C 244.597656 349.261719 245.582031 347.605469 245.625 347.535156 C 245.769531 347.289062 245.6875 346.976562 245.445312 346.828125 C 245.199219 346.683594 244.886719 346.765625 244.742188 347.011719 C 244.730469 347.03125 243.808594 348.570312 242.171875 349.703125 C 240.117188 351.132812 237.898438 351.308594 235.574219 350.230469 C 235.507812 349.757812 235.238281 348.773438 234.253906 346.613281 C 233.398438 344.746094 232.292969 342.621094 231.214844 340.78125 C 230.578125 339.699219 231.734375 337.734375 232.601562 337.085938 C 233.59375 336.335938 239.488281 334.4375 240.148438 334.453125 C 240.554688 334.464844 241.882812 335.574219 242.597656 336.171875 C 243.03125 336.53125 243.441406 336.875 243.785156 337.125 C 244.257812 337.472656 244.925781 337.683594 245.578125 337.886719 C 246.746094 338.253906 247.519531 338.539062 247.5625 339.136719 C 247.652344 340.347656 247.285156 340.589844 246.207031 341.105469 C 245.261719 341.558594 242.214844 341.65625 239.082031 339.878906 C 239.039062 339.847656 238.996094 339.824219 238.945312 339.808594 C 238.84375 339.761719 238.730469 339.75 238.625 339.773438 C 236.949219 339.746094 235.867188 339.535156 235.855469 339.53125 C 235.582031 339.476562 235.308594 339.660156 235.253906 339.9375 C 235.210938 340.164062 235.320312 340.386719 235.511719 340.492188 C 235.558594 340.515625 235.605469 340.535156 235.65625 340.542969 C 235.695312 340.550781 236.40625 340.691406 237.574219 340.765625 C 237.03125 341.296875 236.433594 341.785156 236.082031 341.863281 C 235.804688 341.925781 235.628906 342.203125 235.691406 342.480469 C 235.753906 342.757812 236.027344 342.933594 236.304688 342.871094 C 237.171875 342.675781 238.300781 341.53125 238.847656 340.925781 C 240.625 341.878906 242.25 342.226562 243.328125 342.351562 C 244.679688 342.503906 245.917969 342.386719 246.644531 342.039062 C 247.050781 341.84375 247.410156 341.652344 247.710938 341.421875 C 247.378906 342.449219 247.464844 343.339844 247.949219 344.261719 C 248.246094 344.832031 248.699219 345.289062 249.257812 345.59375 C 249.472656 345.710938 249.703125 345.804688 249.945312 345.875 C 250.871094 346.140625 251.878906 346.007812 252.710938 345.515625 C 252.925781 345.386719 253.222656 345.097656 253.5625 344.707031 C 253.617188 344.855469 253.6875 345.003906 253.773438 345.148438 C 254.054688 345.628906 254.46875 346.035156 254.914062 346.277344 C 254.996094 346.320312 255.078125 346.359375 255.160156 346.394531 C 256.199219 346.800781 257.640625 345.933594 258.992188 344.894531 C 258.714844 345.570312 258.4375 346.265625 258.261719 346.742188 C 258.019531 347.394531 255.675781 351.847656 254.46875 353.207031 C 254.046875 353.683594 252.960938 354.167969 251.8125 354.675781 C 250.378906 355.316406 248.753906 356.039062 247.726562 357.050781 C 246.375 358.382812 245.679688 361.363281 245.070312 362.945312 C 244.121094 365.402344 243.601562 366.664062 242.785156 368.65625 C 241.863281 370.898438 241.089844 373.035156 240.167969 375.277344 L 241.386719 375.277344 C 242.21875 373.136719 241.574219 374.816406 242.40625 372.675781 C 243.425781 370.042969 244.449219 367.410156 245.472656 364.773438 C 245.96875 363.488281 246.46875 362.203125 246.96875 360.917969 C 247.394531 359.824219 247.59375 358.625 248.445312 357.785156 C 249.335938 356.90625 250.875 356.222656 252.230469 355.621094 C 253.535156 355.039062 254.664062 354.535156 255.234375 353.894531 C 256.570312 352.386719 258.957031 347.824219 259.222656 347.101562 C 259.609375 346.058594 260.527344 343.875 260.769531 343.300781 C 261.398438 342.605469 261.941406 341.835938 262.285156 341.136719 C 262.558594 340.574219 262.578125 340 262.332031 339.472656 C 261.671875 338.035156 259.273438 337.390625 259 337.324219 C 258.75 337.261719 258.496094 337.253906 258.238281 337.292969 C 258.332031 336.417969 258.175781 335.640625 257.761719 334.972656 C 256.960938 333.675781 255.515625 333.332031 255.089844 333.257812 C 254.4375 333.144531 253.816406 333.179688 253.445312 333.21875 C 252.839844 331.640625 251.773438 330.375 250.535156 329.78125 C 249.15625 329.125 247.78125 329.324219 247.152344 329.476562 C 247.019531 329.273438 246.8125 329.042969 246.53125 328.75 C 246.203125 328.414062 245.75 327.984375 245.582031 327.875 C 244.675781 327.277344 243.75 326.886719 242.832031 326.71875 C 241.101562 326.398438 239.964844 327.390625 238.863281 328.347656 C 238.734375 328.460938 238.601562 328.574219 238.472656 328.6875 L 238.398438 328.75 C 237.039062 329.902344 234.996094 331.636719 233.242188 335.605469 C 232.671875 335.855469 232.222656 336.082031 231.988281 336.257812 C 230.867188 337.097656 229.3125 339.570312 230.332031 341.304688 C 232.671875 345.296875 234.648438 349.773438 234.566406 350.5 C 234.410156 351.835938 233.714844 353.328125 233.175781 354.546875 C 232.519531 356.039062 231.90625 357.261719 231.078125 358.660156 C 230.210938 360.125 225.003906 369.871094 222.054688 375.277344 L 223.210938 375.269531 " fill-opacity="1" fill-rule="nonzero"/></g><path fill="#59c134" d="M 202.128906 335.5625 L 202.152344 335.742188 C 202.359375 335.660156 202.585938 335.570312 202.8125 335.476562 C 204.496094 334.785156 205.648438 334.351562 206.324219 334.539062 C 206.394531 334.558594 206.484375 334.597656 206.59375 334.652344 C 206.585938 333.691406 206.554688 332.359375 206.464844 331.882812 C 206.410156 331.605469 206.59375 331.335938 206.871094 331.28125 C 207.148438 331.226562 207.417969 331.410156 207.472656 331.6875 C 207.613281 332.433594 207.621094 334.558594 207.621094 335.25 C 208.625 335.890625 209.980469 336.863281 211.125 337.765625 C 210.578125 334.386719 209.429688 332.554688 208.5625 331.175781 L 208.511719 331.09375 C 208.414062 330.945312 208.324219 330.792969 208.230469 330.640625 C 207.535156 329.503906 206.9375 328.523438 205.679688 328.367188 C 204.890625 328.269531 204.027344 328.347656 203.117188 328.605469 C 202.890625 328.683594 201.925781 329.171875 201.566406 329.417969 C 201.613281 329.894531 201.746094 331.308594 202.144531 335.558594 L 202.128906 335.5625 " fill-opacity="1" fill-rule="nonzero"/><path fill="#59c134" d="M 191.519531 341.585938 C 191.980469 342.101562 192.632812 342.40625 193.316406 342.425781 C 193.9375 342.445312 194.519531 342.21875 194.953125 341.789062 C 195.683594 341.066406 196.015625 340.199219 195.425781 338.121094 L 193.382812 331.296875 C 193.117188 331.179688 192.597656 330.96875 192.019531 330.890625 C 191.363281 330.800781 190.425781 330.910156 189.761719 331.476562 C 189.230469 331.9375 188.929688 332.644531 188.875 333.574219 C 189.117188 334.789062 190.292969 338.472656 190.683594 339.707031 C 191.019531 340.648438 191.316406 341.359375 191.519531 341.585938 " fill-opacity="1" fill-rule="nonzero"/><path fill="#59c134" d="M 196.621094 337.371094 C 197.121094 336.117188 198.632812 336.125 199.851562 336.132812 C 200.3125 336.132812 200.785156 336.136719 201.15625 336.074219 L 200.375 329.574219 C 199.976562 329.328125 198.925781 328.78125 197.683594 328.953125 C 197.25 329.015625 195.773438 329.34375 194.457031 331.078125 L 196.5 337.710938 C 196.535156 337.601562 196.574219 337.488281 196.621094 337.371094 " fill-opacity="1" fill-rule="nonzero"/><path fill="#59c134" d="M 205.523438 354.65625 C 205.480469 354.050781 205.480469 353.507812 205.492188 353.019531 C 202.035156 353.34375 199.910156 351.621094 198.714844 350.066406 C 197.371094 348.308594 196.925781 346.429688 196.90625 346.351562 C 196.84375 346.070312 197.015625 345.796875 197.292969 345.730469 C 197.570312 345.667969 197.84375 345.839844 197.90625 346.117188 C 197.910156 346.136719 198.332031 347.882812 199.550781 349.464844 C 201.082031 351.449219 203.144531 352.289062 205.683594 351.964844 C 205.886719 351.53125 206.441406 350.675781 208.03125 348.914062 C 209.402344 347.390625 211.09375 345.699219 212.671875 344.273438 C 213.605469 343.433594 213.089844 341.210938 212.457031 340.328125 C 211.734375 339.316406 206.683594 335.71875 206.050781 335.535156 C 205.660156 335.421875 204.058594 336.078125 203.199219 336.429688 C 202.679688 336.644531 202.1875 336.84375 201.78125 336.980469 C 201.226562 337.167969 200.523438 337.164062 199.84375 337.164062 C 198.617188 337.15625 197.796875 337.195312 197.574219 337.753906 C 197.125 338.882812 197.40625 339.222656 198.28125 340.042969 C 199.046875 340.761719 201.921875 341.773438 205.441406 341.03125 C 205.488281 341.011719 205.539062 341.003906 205.589844 341.003906 C 205.703125 340.988281 205.816406 341.015625 205.910156 341.070312 C 207.515625 341.550781 208.609375 341.675781 208.621094 341.675781 C 208.898438 341.707031 209.101562 341.960938 209.070312 342.246094 C 209.046875 342.476562 208.875 342.652344 208.660156 342.695312 C 208.613281 342.707031 208.558594 342.707031 208.507812 342.703125 C 208.46875 342.699219 207.75 342.617188 206.613281 342.332031 C 206.972656 343 207.394531 343.648438 207.707031 343.832031 C 207.953125 343.976562 208.035156 344.292969 207.894531 344.539062 C 207.75 344.785156 207.4375 344.867188 207.191406 344.722656 C 206.425781 344.273438 205.691406 342.84375 205.347656 342.101562 C 203.371094 342.472656 201.714844 342.308594 200.652344 342.101562 C 199.316406 341.835938 198.171875 341.347656 197.582031 340.796875 C 197.253906 340.492188 196.964844 340.199219 196.75 339.886719 C 196.757812 340.964844 196.410156 341.792969 195.671875 342.523438 C 195.214844 342.976562 194.648438 343.277344 194.023438 343.398438 C 193.785156 343.445312 193.539062 343.464844 193.285156 343.457031 C 192.324219 343.429688 191.402344 342.996094 190.757812 342.277344 C 190.589844 342.085938 190.394531 341.722656 190.1875 341.246094 C 190.089844 341.371094 189.976562 341.492188 189.851562 341.605469 C 189.441406 341.976562 188.925781 342.238281 188.429688 342.335938 C 188.335938 342.355469 188.246094 342.367188 188.15625 342.371094 C 187.042969 342.445312 185.929688 341.183594 184.953125 339.78125 C 185.011719 340.511719 185.070312 341.257812 185.09375 341.765625 C 185.128906 342.460938 186.03125 347.414062 186.777344 349.078125 C 187.035156 349.660156 187.925781 350.449219 188.867188 351.285156 C 190.042969 352.328125 191.378906 353.511719 192.050781 354.785156 C 192.945312 356.464844 192.714844 359.519531 192.820312 361.210938 C 192.992188 363.839844 193.105469 365.203125 193.289062 367.347656 C 193.464844 369.414062 193.800781 373.230469 193.960938 375.300781 L 208.996094 375.300781 C 207.535156 367.808594 205.753906 357.761719 205.679688 357.242188 C 205.523438 356.121094 205.566406 355.308594 205.523438 354.65625 " fill-opacity="1" fill-rule="nonzero"/><path fill="#59c134" d="M 185.429688 338.65625 C 186.109375 339.679688 187.363281 341.390625 188.085938 341.34375 C 188.789062 341.296875 189.667969 340.589844 189.664062 339.898438 C 188.898438 337.746094 188.109375 334.867188 187.875 333.984375 C 187.648438 333.75 187.410156 333.605469 187.148438 333.585938 C 186.804688 333.566406 186.117188 333.578125 185.460938 333.703125 C 184.933594 333.804688 184.425781 333.988281 184.148438 334.296875 C 183.96875 334.496094 183.90625 334.734375 183.953125 335.042969 C 184.058594 335.742188 184.3125 336.5 184.621094 337.183594 C 184.675781 337.25 184.714844 337.335938 184.734375 337.425781 C 184.945312 337.871094 185.171875 338.273438 185.390625 338.597656 L 185.429688 338.65625 " fill-opacity="1" fill-rule="nonzero"/><path fill="#680a20" d="M 207.621094 335.25 C 207.621094 334.558594 207.613281 332.433594 207.472656 331.6875 C 207.417969 331.410156 207.148438 331.226562 206.871094 331.28125 C 206.59375 331.335938 206.410156 331.605469 206.464844 331.882812 C 206.554688 332.359375 206.585938 333.6875 206.59375 334.652344 C 206.484375 334.597656 206.394531 334.558594 206.324219 334.539062 C 205.648438 334.351562 204.496094 334.785156 202.8125 335.476562 C 202.585938 335.570312 202.359375 335.660156 202.152344 335.742188 L 202.128906 335.5625 L 202.144531 335.558594 C 201.746094 331.308594 201.613281 329.894531 201.566406 329.417969 C 201.925781 329.171875 202.890625 328.683594 203.117188 328.605469 C 204.027344 328.347656 204.890625 328.269531 205.679688 328.367188 C 206.9375 328.523438 207.535156 329.503906 208.230469 330.640625 C 208.324219 330.792969 208.414062 330.945312 208.511719 331.09375 L 208.5625 331.175781 C 209.429688 332.554688 210.578125 334.386719 211.125 337.765625 C 209.980469 336.863281 208.625 335.890625 207.621094 335.25 Z M 199.851562 336.132812 C 198.632812 336.125 197.121094 336.117188 196.621094 337.371094 C 196.574219 337.488281 196.535156 337.601562 196.5 337.710938 L 194.457031 331.078125 C 195.773438 329.34375 197.25 329.015625 197.683594 328.953125 C 198.925781 328.78125 199.976562 329.328125 200.375 329.574219 L 201.15625 336.074219 C 200.785156 336.136719 200.3125 336.132812 199.851562 336.132812 Z M 194.953125 341.789062 C 194.519531 342.21875 193.9375 342.445312 193.316406 342.425781 C 192.632812 342.40625 191.980469 342.101562 191.519531 341.585938 C 191.316406 341.359375 191.019531 340.648438 190.683594 339.707031 C 190.292969 338.472656 189.117188 334.789062 188.875 333.574219 C 188.929688 332.644531 189.230469 331.9375 189.765625 331.476562 C 190.425781 330.910156 191.363281 330.800781 192.019531 330.890625 C 192.597656 330.96875 193.117188 331.179688 193.382812 331.296875 L 195.425781 338.121094 C 196.015625 340.199219 195.683594 341.066406 194.953125 341.789062 Z M 188.085938 341.34375 C 187.363281 341.390625 186.109375 339.679688 185.429688 338.65625 L 185.390625 338.597656 C 185.171875 338.273438 184.945312 337.871094 184.734375 337.425781 C 184.714844 337.335938 184.675781 337.25 184.621094 337.183594 C 184.3125 336.5 184.058594 335.742188 183.953125 335.042969 C 183.90625 334.734375 183.96875 334.496094 184.148438 334.296875 C 184.425781 333.988281 184.933594 333.804688 185.460938 333.703125 C 186.117188 333.578125 186.804688 333.566406 187.148438 333.585938 C 187.410156 333.605469 187.648438 333.75 187.875 333.984375 C 188.109375 334.867188 188.898438 337.746094 189.664062 339.898438 C 189.667969 340.589844 188.789062 341.296875 188.085938 341.34375 Z M 213.289062 339.726562 C 213.121094 339.488281 212.757812 339.132812 212.289062 338.726562 C 211.804688 334.410156 210.378906 332.136719 209.425781 330.625 L 209.375 330.542969 C 209.285156 330.398438 209.195312 330.25 209.105469 330.101562 C 208.339844 328.855469 207.554688 327.5625 205.808594 327.34375 C 204.882812 327.226562 203.882812 327.320312 202.839844 327.613281 C 202.648438 327.667969 202.085938 327.941406 201.671875 328.164062 C 201.316406 328.355469 201.046875 328.511719 200.859375 328.664062 C 200.304688 328.332031 199.054688 327.722656 197.542969 327.933594 C 196.1875 328.121094 194.789062 329.007812 193.738281 330.328125 C 193.398438 330.179688 192.8125 329.957031 192.160156 329.867188 C 191.730469 329.8125 190.25 329.699219 189.097656 330.695312 C 188.503906 331.203125 188.121094 331.898438 187.945312 332.761719 C 187.714844 332.644531 187.46875 332.574219 187.214844 332.558594 L 187.210938 332.558594 C 186.933594 332.542969 184.453125 332.429688 183.390625 333.601562 C 183 334.027344 182.84375 334.582031 182.9375 335.199219 C 183.054688 335.972656 183.34375 336.871094 183.734375 337.722656 C 183.792969 338.34375 184.015625 340.703125 184.070312 341.816406 C 184.109375 342.585938 185.019531 347.660156 185.839844 349.5 C 186.191406 350.285156 187.117188 351.105469 188.1875 352.058594 C 189.300781 353.042969 190.558594 354.160156 191.148438 355.269531 C 191.710938 356.328125 191.539062 357.53125 191.617188 358.703125 C 191.707031 360.078125 191.796875 361.457031 191.890625 362.835938 C 192.074219 365.65625 192.476562 370.21875 192.664062 373.039062 C 192.714844 373.792969 192.761719 374.546875 192.8125 375.300781 L 193.960938 375.300781 C 193.800781 373.230469 193.464844 369.414062 193.289062 367.347656 C 193.105469 365.203125 192.992188 363.839844 192.820312 361.210938 C 192.714844 359.519531 192.945312 356.464844 192.050781 354.785156 C 191.378906 353.511719 190.042969 352.328125 188.867188 351.285156 C 187.925781 350.449219 187.035156 349.660156 186.777344 349.078125 C 186.03125 347.414062 185.128906 342.460938 185.09375 341.765625 C 185.070312 341.257812 185.011719 340.511719 184.953125 339.78125 C 185.929688 341.183594 187.042969 342.445312 188.15625 342.371094 C 188.246094 342.367188 188.335938 342.355469 188.429688 342.335938 C 188.925781 342.238281 189.441406 341.976562 189.851562 341.605469 C 189.976562 341.492188 190.089844 341.371094 190.1875 341.246094 C 190.394531 341.722656 190.589844 342.085938 190.757812 342.277344 C 191.402344 342.996094 192.324219 343.429688 193.285156 343.457031 C 193.539062 343.464844 193.785156 343.445312 194.023438 343.398438 C 194.648438 343.277344 195.214844 342.976562 195.671875 342.523438 C 196.410156 341.792969 196.757812 340.964844 196.75 339.886719 C 196.964844 340.199219 197.253906 340.492188 197.582031 340.796875 C 198.171875 341.347656 199.316406 341.835938 200.652344 342.101562 C 201.714844 342.308594 203.371094 342.472656 205.347656 342.101562 C 205.691406 342.84375 206.425781 344.273438 207.191406 344.722656 C 207.4375 344.867188 207.75 344.785156 207.894531 344.539062 C 208.035156 344.292969 207.953125 343.976562 207.707031 343.832031 C 207.394531 343.648438 206.972656 343 206.613281 342.332031 C 207.75 342.617188 208.46875 342.699219 208.507812 342.703125 C 208.558594 342.707031 208.613281 342.707031 208.660156 342.695312 C 208.875 342.652344 209.046875 342.476562 209.070312 342.246094 C 209.101562 341.960938 208.898438 341.707031 208.621094 341.675781 C 208.609375 341.675781 207.515625 341.550781 205.910156 341.070312 C 205.816406 341.015625 205.703125 340.988281 205.589844 341.003906 C 205.539062 341.003906 205.488281 341.011719 205.441406 341.03125 C 201.921875 341.773438 199.046875 340.761719 198.28125 340.042969 C 197.40625 339.222656 197.125 338.882812 197.574219 337.753906 C 197.796875 337.195312 198.617188 337.15625 199.84375 337.164062 C 200.523438 337.164062 201.226562 337.167969 201.78125 336.980469 C 202.1875 336.84375 202.679688 336.644531 203.199219 336.429688 C 204.058594 336.078125 205.660156 335.421875 206.050781 335.535156 C 206.683594 335.71875 211.734375 339.316406 212.457031 340.328125 C 213.089844 341.210938 213.605469 343.433594 212.671875 344.273438 C 211.09375 345.699219 209.402344 347.390625 208.03125 348.914062 C 206.441406 350.675781 205.886719 351.53125 205.683594 351.964844 C 203.144531 352.289062 201.082031 351.449219 199.550781 349.460938 C 198.332031 347.882812 197.910156 346.136719 197.90625 346.117188 C 197.84375 345.839844 197.570312 345.667969 197.292969 345.730469 C 197.015625 345.796875 196.84375 346.070312 196.90625 346.351562 C 196.925781 346.429688 197.371094 348.308594 198.714844 350.066406 C 199.910156 351.621094 202.035156 353.34375 205.492188 353.019531 C 205.480469 353.507812 205.480469 354.050781 205.523438 354.65625 C 205.566406 355.308594 205.523438 356.121094 205.679688 357.242188 C 205.753906 357.761719 207.535156 367.808594 208.996094 375.300781 L 210.050781 375.300781 C 209.015625 369.929688 207.71875 362.523438 207.445312 361.363281 C 207.078125 359.78125 206.855469 358.425781 206.675781 356.804688 C 206.53125 355.480469 206.316406 353.847656 206.566406 352.527344 C 206.703125 351.804688 209.929688 348.136719 213.355469 345.042969 C 214.847656 343.695312 214.105469 340.867188 213.289062 339.726562 " fill-opacity="1" fill-rule="nonzero"/><path fill="#ee263a" d="M 131.597656 331.609375 L 131.65625 331.785156 C 131.847656 331.660156 132.046875 331.527344 132.253906 331.390625 C 133.765625 330.382812 134.8125 329.726562 135.515625 329.777344 C 135.585938 329.785156 135.683594 329.804688 135.800781 329.832031 C 135.605469 328.890625 135.3125 327.59375 135.132812 327.148438 C 135.023438 326.882812 135.148438 326.582031 135.410156 326.472656 C 135.671875 326.367188 135.972656 326.492188 136.082031 326.753906 C 136.367188 327.457031 136.789062 329.539062 136.925781 330.21875 C 138.03125 330.648438 139.550781 331.332031 140.851562 331.992188 C 139.65625 328.789062 138.167969 327.21875 137.046875 326.039062 L 136.980469 325.96875 C 136.859375 325.839844 136.738281 325.707031 136.621094 325.578125 C 135.71875 324.601562 134.9375 323.757812 133.675781 323.851562 C 132.882812 323.910156 132.050781 324.160156 131.207031 324.59375 C 131 324.714844 130.148438 325.382812 129.847656 325.699219 C 129.984375 326.15625 130.390625 327.515625 131.617188 331.605469 L 131.597656 331.609375 " fill-opacity="1" fill-rule="nonzero"/><path fill="#ee263a" d="M 121.1875 337.9375 C 121.699219 338.796875 122.132812 339.433594 122.378906 339.613281 C 122.925781 340.027344 123.628906 340.199219 124.300781 340.082031 C 124.917969 339.980469 125.441406 339.640625 125.78125 339.136719 C 126.355469 338.28125 126.511719 337.367188 125.527344 335.445312 L 122.191406 329.160156 C 121.90625 329.09375 121.355469 328.992188 120.777344 329.027344 C 120.113281 329.070312 119.214844 329.363281 118.675781 330.050781 C 118.242188 330.605469 118.089844 331.359375 118.214844 332.285156 C 118.691406 333.425781 120.566406 336.804688 121.1875 337.9375 " fill-opacity="1" fill-rule="nonzero"/><path fill="#ee263a" d="M 126.554688 334.472656 C 126.796875 333.148438 128.28125 332.855469 129.476562 332.621094 C 129.929688 332.53125 130.394531 332.4375 130.746094 332.304688 L 128.707031 326.085938 C 128.269531 325.925781 127.132812 325.597656 125.949219 326.011719 C 125.535156 326.15625 124.152344 326.769531 123.203125 328.730469 L 126.503906 334.832031 C 126.515625 334.714844 126.53125 334.597656 126.554688 334.472656 " fill-opacity="1" fill-rule="nonzero"/><path fill="#ee263a" d="M 138.664062 349.660156 C 138.503906 349.074219 138.394531 348.542969 138.3125 348.0625 C 134.984375 349.0625 132.5625 347.796875 131.089844 346.503906 C 129.429688 345.046875 128.625 343.292969 128.589844 343.21875 C 128.472656 342.960938 128.585938 342.65625 128.84375 342.539062 C 129.105469 342.417969 129.40625 342.535156 129.523438 342.792969 C 129.53125 342.8125 130.285156 344.441406 131.789062 345.75 C 133.679688 347.390625 135.867188 347.808594 138.292969 346.988281 C 138.410156 346.523438 138.785156 345.574219 139.996094 343.535156 C 141.042969 341.769531 142.371094 339.777344 143.640625 338.066406 C 144.390625 337.058594 143.453125 334.980469 142.660156 334.242188 C 141.75 333.390625 136.09375 330.863281 135.4375 330.804688 C 135.03125 330.777344 133.59375 331.734375 132.820312 332.25 C 132.351562 332.5625 131.90625 332.855469 131.535156 333.070312 C 131.03125 333.363281 130.339844 333.5 129.671875 333.632812 C 128.46875 333.867188 127.671875 334.066406 127.5625 334.660156 C 127.34375 335.855469 127.683594 336.132812 128.703125 336.765625 C 129.59375 337.316406 132.609375 337.742188 135.917969 336.316406 C 135.960938 336.289062 136.007812 336.273438 136.058594 336.261719 C 136.167969 336.222656 136.28125 336.226562 136.382812 336.261719 C 138.050781 336.417969 139.148438 336.324219 139.160156 336.320312 C 139.441406 336.296875 139.691406 336.507812 139.714844 336.789062 C 139.734375 337.019531 139.601562 337.230469 139.398438 337.3125 C 139.351562 337.332031 139.300781 337.34375 139.25 337.347656 C 139.210938 337.351562 138.492188 337.414062 137.320312 337.359375 C 137.800781 337.945312 138.34375 338.496094 138.6875 338.617188 C 138.957031 338.707031 139.097656 339 139.007812 339.269531 C 138.914062 339.539062 138.625 339.683594 138.355469 339.589844 C 137.515625 339.300781 136.515625 338.042969 136.035156 337.382812 C 134.167969 338.136719 132.515625 338.308594 131.429688 338.3125 C 130.070312 338.316406 128.851562 338.066406 128.164062 337.640625 C 127.785156 337.40625 127.445312 337.179688 127.171875 336.914062 C 127.394531 337.972656 127.210938 338.847656 126.632812 339.710938 C 126.273438 340.25 125.773438 340.652344 125.1875 340.894531 C 124.960938 340.988281 124.722656 341.058594 124.472656 341.101562 C 123.523438 341.261719 122.539062 341.023438 121.765625 340.441406 C 121.5625 340.289062 121.300781 339.972656 121.003906 339.546875 C 120.933594 339.6875 120.847656 339.828125 120.746094 339.960938 C 120.414062 340.410156 119.957031 340.769531 119.492188 340.960938 C 119.40625 340.996094 119.320312 341.027344 119.230469 341.050781 C 118.15625 341.34375 116.816406 340.324219 115.582031 339.144531 C 115.785156 339.847656 115.988281 340.566406 116.113281 341.0625 C 116.28125 341.734375 118.136719 346.417969 119.191406 347.898438 C 119.558594 348.417969 120.585938 349.015625 121.671875 349.648438 C 123.03125 350.4375 124.570312 351.335938 125.480469 352.449219 C 126.683594 353.921875 127.054688 356.960938 127.492188 358.597656 C 128.171875 361.144531 128.550781 362.457031 129.148438 364.523438 C 129.824219 366.851562 130.425781 369.210938 131.101562 371.542969 C 131.457031 372.773438 131.785156 373.996094 132.101562 375.214844 L 148.738281 375.214844 C 145.710938 368.054688 139.566406 352.859375 139.320312 352.164062 C 138.949219 351.09375 138.835938 350.292969 138.664062 349.660156 " fill-opacity="1" fill-rule="nonzero"/><path fill="#ee263a" d="M 115.832031 337.949219 C 116.699219 338.816406 118.261719 340.246094 118.964844 340.054688 C 119.640625 339.871094 120.367188 339.003906 120.226562 338.328125 C 119.054688 336.371094 117.71875 333.703125 117.3125 332.882812 C 117.050781 332.695312 116.785156 332.601562 116.527344 332.636719 C 116.183594 332.6875 115.511719 332.832031 114.894531 333.085938 C 114.394531 333.289062 113.933594 333.570312 113.722656 333.925781 C 113.582031 334.15625 113.570312 334.402344 113.675781 334.699219 C 113.917969 335.363281 114.316406 336.054688 114.75 336.664062 C 114.820312 336.71875 114.875 336.792969 114.90625 336.878906 C 115.203125 337.273438 115.503906 337.625 115.78125 337.898438 L 115.832031 337.949219 " fill-opacity="1" fill-rule="nonzero"/><g clip-path="url(#4b5c78b5fa)"><path fill="#680a20" d="M 136.925781 330.21875 C 136.789062 329.539062 136.367188 327.457031 136.082031 326.753906 C 135.972656 326.492188 135.671875 326.367188 135.410156 326.472656 C 135.148438 326.582031 135.023438 326.882812 135.132812 327.148438 C 135.3125 327.59375 135.605469 328.890625 135.800781 329.832031 C 135.683594 329.804688 135.585938 329.785156 135.515625 329.777344 C 134.8125 329.726562 133.765625 330.382812 132.253906 331.390625 C 132.046875 331.527344 131.847656 331.660156 131.65625 331.785156 L 131.597656 331.609375 L 131.617188 331.605469 C 130.390625 327.515625 129.984375 326.15625 129.847656 325.699219 C 130.148438 325.382812 131 324.714844 131.207031 324.59375 C 132.050781 324.160156 132.882812 323.910156 133.675781 323.851562 C 134.9375 323.757812 135.71875 324.601562 136.621094 325.578125 C 136.738281 325.707031 136.859375 325.839844 136.980469 325.96875 L 137.046875 326.039062 C 138.167969 327.21875 139.65625 328.789062 140.851562 331.992188 C 139.550781 331.332031 138.03125 330.648438 136.925781 330.21875 Z M 129.476562 332.621094 C 128.28125 332.855469 126.796875 333.148438 126.554688 334.472656 C 126.53125 334.597656 126.515625 334.714844 126.503906 334.832031 L 123.203125 328.730469 C 124.152344 326.769531 125.535156 326.15625 125.949219 326.011719 C 127.132812 325.597656 128.269531 325.925781 128.707031 326.085938 L 130.746094 332.304688 C 130.394531 332.4375 129.929688 332.53125 129.476562 332.621094 Z M 125.78125 339.136719 C 125.441406 339.640625 124.917969 339.980469 124.300781 340.082031 C 123.628906 340.199219 122.925781 340.027344 122.378906 339.613281 C 122.132812 339.433594 121.699219 338.796875 121.1875 337.9375 C 120.566406 336.804688 118.691406 333.425781 118.214844 332.285156 C 118.089844 331.359375 118.242188 330.605469 118.675781 330.050781 C 119.214844 329.363281 120.113281 329.070312 120.777344 329.027344 C 121.355469 328.992188 121.90625 329.09375 122.191406 329.160156 L 125.527344 335.445312 C 126.511719 337.367188 126.355469 338.28125 125.78125 339.136719 Z M 118.964844 340.054688 C 118.261719 340.246094 116.699219 338.816406 115.832031 337.949219 L 115.78125 337.898438 C 115.503906 337.625 115.203125 337.273438 114.90625 336.878906 C 114.875 336.792969 114.820312 336.71875 114.75 336.664062 C 114.316406 336.054688 113.917969 335.363281 113.675781 334.699219 C 113.570312 334.402344 113.582031 334.15625 113.722656 333.925781 C 113.933594 333.570312 114.394531 333.289062 114.894531 333.085938 C 115.511719 332.832031 116.183594 332.6875 116.527344 332.636719 C 116.785156 332.601562 117.050781 332.695312 117.3125 332.882812 C 117.71875 333.703125 119.054688 336.371094 120.226562 338.328125 C 120.367188 339.003906 119.640625 339.871094 118.964844 340.054688 Z M 141.859375 355.855469 C 141.1875 354.375 140.707031 353.09375 140.214844 351.539062 C 139.8125 350.269531 139.28125 348.710938 139.269531 347.367188 C 139.261719 346.632812 141.707031 342.398438 144.464844 338.683594 C 145.660156 337.070312 144.378906 334.441406 143.359375 333.484375 C 143.144531 333.285156 142.71875 333.011719 142.179688 332.703125 C 140.863281 328.566406 139.019531 326.621094 137.789062 325.328125 L 137.722656 325.257812 C 137.605469 325.128906 137.488281 325.003906 137.371094 324.878906 C 136.378906 323.804688 135.351562 322.695312 133.597656 322.824219 C 132.667969 322.894531 131.707031 323.179688 130.742188 323.675781 C 130.5625 323.769531 130.066406 324.148438 129.703125 324.445312 C 129.394531 324.703125 129.160156 324.914062 129.007812 325.097656 C 128.398438 324.878906 127.054688 324.53125 125.613281 325.035156 C 124.320312 325.492188 123.121094 326.636719 122.351562 328.140625 C 121.988281 328.058594 121.371094 327.957031 120.710938 328 C 120.28125 328.027344 118.808594 328.210938 117.871094 329.414062 C 117.390625 330.03125 117.148438 330.789062 117.148438 331.671875 C 116.894531 331.601562 116.644531 331.582031 116.390625 331.617188 L 116.386719 331.617188 C 116.109375 331.65625 113.65625 332.035156 112.84375 333.394531 C 112.546875 333.890625 112.5 334.464844 112.714844 335.050781 C 112.980469 335.785156 113.4375 336.609375 113.988281 337.367188 C 114.167969 337.964844 114.847656 340.234375 115.117188 341.3125 C 115.304688 342.0625 117.191406 346.855469 118.355469 348.5 C 118.855469 349.199219 119.921875 349.820312 121.160156 350.539062 C 122.441406 351.285156 123.894531 352.132812 124.6875 353.105469 C 125.445312 354.03125 125.515625 355.246094 125.820312 356.375 C 126.179688 357.710938 126.535156 359.042969 126.894531 360.375 C 127.628906 363.105469 128.363281 365.832031 129.097656 368.5625 C 129.691406 370.78125 130.289062 372.996094 130.886719 375.214844 L 132.101562 375.214844 C 131.785156 373.996094 131.457031 372.773438 131.101562 371.542969 C 130.425781 369.210938 129.824219 366.851562 129.148438 364.523438 C 128.550781 362.457031 128.171875 361.144531 127.492188 358.597656 C 127.054688 356.960938 126.683594 353.921875 125.480469 352.449219 C 124.570312 351.335938 123.03125 350.4375 121.671875 349.648438 C 120.585938 349.015625 119.558594 348.417969 119.191406 347.898438 C 118.136719 346.417969 116.28125 341.734375 116.113281 341.0625 C 115.988281 340.566406 115.785156 339.847656 115.582031 339.144531 C 116.816406 340.324219 118.15625 341.34375 119.230469 341.050781 C 119.320312 341.027344 119.40625 340.996094 119.492188 340.960938 C 119.957031 340.769531 120.414062 340.410156 120.746094 339.960938 C 120.847656 339.828125 120.933594 339.6875 121.003906 339.546875 C 121.300781 339.972656 121.5625 340.289062 121.765625 340.441406 C 122.539062 341.023438 123.523438 341.261719 124.472656 341.101562 C 124.722656 341.058594 124.960938 340.988281 125.1875 340.894531 C 125.773438 340.652344 126.273438 340.25 126.632812 339.710938 C 127.210938 338.847656 127.394531 337.972656 127.171875 336.914062 C 127.445312 337.179688 127.785156 337.40625 128.164062 337.640625 C 128.851562 338.066406 130.070312 338.316406 131.429688 338.3125 C 132.515625 338.308594 134.167969 338.136719 136.035156 337.382812 C 136.515625 338.042969 137.515625 339.300781 138.355469 339.589844 C 138.625 339.683594 138.914062 339.539062 139.007812 339.269531 C 139.097656 339 138.957031 338.707031 138.6875 338.617188 C 138.34375 338.496094 137.800781 337.945312 137.320312 337.359375 C 138.492188 337.414062 139.210938 337.351562 139.25 337.347656 C 139.300781 337.34375 139.351562 337.332031 139.398438 337.3125 C 139.601562 337.230469 139.734375 337.019531 139.714844 336.789062 C 139.691406 336.507812 139.441406 336.296875 139.160156 336.320312 C 139.148438 336.324219 138.050781 336.417969 136.382812 336.261719 C 136.28125 336.226562 136.167969 336.222656 136.058594 336.261719 C 136.007812 336.273438 135.960938 336.289062 135.917969 336.316406 C 132.609375 337.742188 129.59375 337.316406 128.703125 336.765625 C 127.683594 336.132812 127.34375 335.855469 127.5625 334.660156 C 127.671875 334.066406 128.46875 333.867188 129.671875 333.632812 C 130.339844 333.5 131.03125 333.363281 131.535156 333.070312 C 131.90625 332.855469 132.351562 332.5625 132.820312 332.25 C 133.59375 331.734375 135.03125 330.777344 135.4375 330.804688 C 136.09375 330.863281 141.75 333.390625 142.660156 334.242188 C 143.453125 334.980469 144.390625 337.058594 143.640625 338.066406 C 142.371094 339.777344 141.042969 341.769531 139.996094 343.535156 C 138.785156 345.574219 138.410156 346.523438 138.292969 346.988281 C 135.867188 347.808594 133.679688 347.390625 131.789062 345.75 C 130.285156 344.441406 129.53125 342.8125 129.523438 342.792969 C 129.40625 342.535156 129.105469 342.417969 128.84375 342.539062 C 128.585938 342.65625 128.472656 342.960938 128.589844 343.21875 C 128.625 343.292969 129.429688 345.046875 131.089844 346.503906 C 132.5625 347.796875 134.984375 349.0625 138.3125 348.0625 C 138.394531 348.542969 138.503906 349.074219 138.664062 349.660156 C 138.835938 350.292969 138.949219 351.09375 139.320312 352.164062 C 139.566406 352.859375 145.710938 368.054688 148.738281 375.214844 L 149.820312 375.214844 C 147.761719 370.300781 142.652344 357.597656 141.859375 355.855469 " fill-opacity="1" fill-rule="nonzero"/></g><path fill="#f89a0f" d="M 146.007812 326.125 C 146.050781 325.84375 146.3125 325.652344 146.59375 325.695312 C 146.871094 325.738281 147.0625 326.003906 147.019531 326.285156 C 146.945312 326.761719 146.964844 328.09375 146.992188 329.054688 C 147.097656 328.996094 147.1875 328.957031 147.253906 328.933594 C 147.925781 328.71875 149.09375 329.113281 150.796875 329.738281 C 151.03125 329.824219 151.257812 329.910156 151.472656 329.984375 L 151.488281 329.800781 L 151.46875 329.800781 C 151.714844 325.539062 151.796875 324.117188 151.824219 323.644531 C 151.460938 323.40625 150.480469 322.953125 150.25 322.886719 C 149.328125 322.664062 148.464844 322.613281 147.675781 322.742188 C 146.425781 322.945312 145.863281 323.945312 145.210938 325.105469 C 145.125 325.261719 145.039062 325.414062 144.949219 325.570312 L 144.898438 325.652344 C 144.082031 327.0625 143 328.9375 142.574219 332.332031 C 143.6875 331.386719 145.007812 330.367188 145.984375 329.691406 C 145.960938 329 145.890625 326.875 146.007812 326.125 " fill-opacity="1" fill-rule="nonzero"/><path fill="#f89a0f" d="M 158.882812 335.765625 C 159.328125 336.179688 159.917969 336.382812 160.542969 336.339844 C 161.222656 336.296875 161.863281 335.964844 162.304688 335.4375 C 162.5 335.203125 162.773438 334.480469 163.074219 333.527344 C 163.417969 332.28125 164.460938 328.554688 164.660156 327.332031 C 164.570312 326.402344 164.246094 325.710938 163.695312 325.269531 C 163.015625 324.726562 162.074219 324.652344 161.417969 324.765625 C 160.847656 324.863281 160.332031 325.09375 160.070312 325.222656 L 158.277344 332.117188 C 157.761719 334.214844 158.128906 335.066406 158.882812 335.765625 " fill-opacity="1" fill-rule="nonzero"/><path fill="#f89a0f" d="M 153.785156 330.289062 C 155 330.238281 156.511719 330.175781 157.054688 331.410156 C 157.105469 331.523438 157.148438 331.636719 157.1875 331.746094 L 158.988281 325.039062 C 157.613281 323.355469 156.125 323.082031 155.691406 323.035156 C 154.445312 322.910156 153.414062 323.496094 153.023438 323.757812 L 152.476562 330.277344 C 152.851562 330.324219 153.324219 330.308594 153.785156 330.289062 " fill-opacity="1" fill-rule="nonzero"/><g clip-path="url(#7270711fe8)"><path fill="#f89a0f" d="M 160.210938 374.90625 C 160.328125 372.480469 160.527344 370.28125 160.648438 367.855469 C 160.753906 365.707031 161.636719 357.730469 161.710938 355.09375 C 161.757812 353.398438 161.417969 350.359375 162.246094 348.644531 C 162.875 347.347656 164.167969 346.117188 165.304688 345.03125 C 166.214844 344.164062 167.078125 343.339844 167.316406 342.75 C 168 341.0625 168.722656 336.074219 168.730469 335.382812 C 168.738281 334.871094 168.769531 334.125 168.804688 333.394531 C 167.875 334.828125 166.808594 336.132812 165.695312 336.097656 C 165.605469 336.097656 165.511719 336.085938 165.421875 336.074219 C 164.921875 335.996094 164.398438 335.75 163.972656 335.394531 C 163.84375 335.285156 163.726562 335.167969 163.625 335.050781 C 163.433594 335.53125 163.253906 335.902344 163.089844 336.097656 C 162.472656 336.84375 161.566406 337.304688 160.609375 337.371094 C 160.355469 337.386719 160.109375 337.375 159.867188 337.335938 C 159.242188 337.238281 158.660156 336.960938 158.1875 336.523438 C 157.425781 335.820312 157.046875 335.007812 157.019531 333.925781 C 156.8125 334.25 156.535156 334.550781 156.21875 334.867188 C 155.652344 335.441406 154.519531 335.96875 153.199219 336.28125 C 152.140625 336.53125 150.496094 336.75 148.503906 336.453125 C 148.1875 337.207031 147.507812 338.664062 146.757812 339.140625 C 146.515625 339.292969 146.199219 339.222656 146.046875 338.980469 C 145.898438 338.742188 145.96875 338.421875 146.207031 338.269531 C 146.515625 338.074219 146.914062 337.414062 147.25 336.730469 C 146.121094 337.054688 145.40625 337.164062 145.367188 337.167969 C 145.316406 337.175781 145.265625 337.175781 145.214844 337.167969 C 145 337.136719 144.820312 336.964844 144.789062 336.734375 C 144.746094 336.453125 144.941406 336.191406 145.21875 336.148438 C 145.230469 336.148438 146.320312 335.984375 147.90625 335.441406 C 148 335.382812 148.109375 335.355469 148.222656 335.367188 C 148.273438 335.367188 148.324219 335.371094 148.371094 335.386719 C 151.917969 336.003906 154.753906 334.886719 155.492188 334.140625 C 156.335938 333.289062 156.605469 332.9375 156.117188 331.824219 C 155.875 331.277344 155.050781 331.269531 153.824219 331.320312 C 153.148438 331.347656 152.445312 331.375 151.882812 331.207031 C 151.476562 331.085938 150.976562 330.902344 150.445312 330.707031 C 149.574219 330.386719 147.953125 329.792969 147.566406 329.917969 C 146.941406 330.125 142.023438 333.902344 141.335938 334.941406 C 140.734375 335.847656 140.300781 338.085938 141.261719 338.890625 C 142.894531 340.261719 144.644531 341.886719 146.070312 343.359375 C 147.71875 345.0625 148.304688 345.898438 148.523438 346.320312 C 151.074219 346.554688 153.105469 345.640625 154.566406 343.601562 C 155.726562 341.976562 156.082031 340.214844 156.085938 340.195312 C 156.140625 339.917969 156.40625 339.734375 156.6875 339.789062 C 156.964844 339.84375 157.144531 340.113281 157.09375 340.390625 C 157.078125 340.472656 156.699219 342.367188 155.417969 344.171875 C 154.285156 345.769531 152.222656 347.570312 148.753906 347.371094 C 148.785156 347.855469 148.800781 348.402344 148.78125 349.007812 C 148.761719 349.660156 148.835938 350.46875 148.71875 351.59375 C 148.71875 351.601562 148.714844 351.613281 148.714844 351.621094 C 148.710938 351.664062 148.703125 351.722656 148.691406 351.796875 C 148.492188 353.261719 146.246094 368 145.089844 375.269531 L 160.148438 375.355469 C 160.171875 374.09375 160.148438 376.183594 160.210938 374.90625 " fill-opacity="1" fill-rule="nonzero"/></g><path fill="#f89a0f" d="M 165.726562 335.066406 C 166.453125 335.089844 167.644531 333.335938 168.289062 332.289062 L 168.324219 332.226562 C 168.527344 331.894531 168.742188 331.484375 168.9375 331.03125 C 168.953125 330.941406 168.988281 330.855469 169.042969 330.785156 C 169.324219 330.089844 169.550781 329.324219 169.632812 328.621094 C 169.667969 328.308594 169.597656 328.074219 169.410156 327.882812 C 169.121094 327.585938 168.609375 327.421875 168.074219 327.335938 C 167.417969 327.234375 166.726562 327.25 166.382812 327.285156 C 166.125 327.308594 165.890625 327.464844 165.675781 327.707031 C 165.46875 328.597656 164.789062 331.503906 164.101562 333.679688 C 164.121094 334.375 165.023438 335.046875 165.726562 335.066406 " fill-opacity="1" fill-rule="nonzero"/><g clip-path="url(#a071010803)"><path fill="#680a20" d="M 168.324219 332.226562 L 168.289062 332.289062 C 167.644531 333.335938 166.453125 335.089844 165.726562 335.066406 C 165.023438 335.046875 164.121094 334.375 164.101562 333.679688 C 164.789062 331.503906 165.46875 328.597656 165.675781 327.707031 C 165.890625 327.464844 166.125 327.308594 166.382812 327.285156 C 166.726562 327.25 167.417969 327.234375 168.074219 327.335938 C 168.609375 327.421875 169.121094 327.585938 169.410156 327.882812 C 169.597656 328.074219 169.667969 328.308594 169.632812 328.621094 C 169.550781 329.324219 169.324219 330.089844 169.042969 330.785156 C 168.988281 330.855469 168.953125 330.941406 168.9375 331.03125 C 168.742188 331.484375 168.527344 331.894531 168.324219 332.226562 Z M 163.074219 333.527344 C 162.773438 334.480469 162.5 335.203125 162.304688 335.4375 C 161.863281 335.964844 161.222656 336.296875 160.542969 336.339844 C 159.917969 336.382812 159.328125 336.179688 158.882812 335.765625 C 158.128906 335.066406 157.761719 334.214844 158.277344 332.117188 L 160.070312 325.222656 C 160.332031 325.09375 160.847656 324.863281 161.417969 324.765625 C 162.074219 324.652344 163.015625 324.726562 163.695312 325.269531 C 164.246094 325.710938 164.570312 326.402344 164.660156 327.332031 C 164.460938 328.554688 163.417969 332.28125 163.074219 333.527344 Z M 157.054688 331.410156 C 156.511719 330.175781 155 330.238281 153.785156 330.289062 C 153.324219 330.308594 152.851562 330.324219 152.476562 330.277344 L 153.023438 323.757812 C 153.414062 323.496094 154.445312 322.910156 155.691406 323.035156 C 156.125 323.082031 157.613281 323.355469 158.988281 325.039062 L 157.1875 331.746094 C 157.148438 331.636719 157.105469 331.523438 157.054688 331.410156 Z M 151.488281 329.800781 L 151.472656 329.984375 C 151.257812 329.910156 151.03125 329.824219 150.796875 329.738281 C 149.09375 329.113281 147.925781 328.71875 147.253906 328.933594 C 147.1875 328.957031 147.097656 328.996094 146.992188 329.054688 C 146.964844 328.09375 146.945312 326.761719 147.019531 326.285156 C 147.0625 326.003906 146.871094 325.738281 146.59375 325.695312 C 146.3125 325.652344 146.050781 325.84375 146.007812 326.125 C 145.890625 326.875 145.960938 329 145.984375 329.691406 C 145.007812 330.367188 143.6875 331.386719 142.574219 332.332031 C 143 328.9375 144.082031 327.0625 144.898438 325.652344 L 144.949219 325.570312 C 145.039062 325.414062 145.125 325.261719 145.210938 325.105469 C 145.863281 323.945312 146.425781 322.945312 147.675781 322.742188 C 148.464844 322.613281 149.328125 322.664062 150.25 322.886719 C 150.480469 322.953125 151.460938 323.40625 151.824219 323.644531 C 151.796875 324.117188 151.714844 325.539062 151.46875 329.800781 Z M 170.140625 327.160156 C 169.039062 326.027344 166.5625 326.230469 166.285156 326.257812 L 166.28125 326.257812 C 166.027344 326.285156 165.785156 326.363281 165.558594 326.488281 C 165.351562 325.628906 164.945312 324.949219 164.335938 324.464844 C 163.144531 323.511719 161.667969 323.675781 161.246094 323.75 C 160.59375 323.863281 160.015625 324.105469 159.679688 324.269531 C 158.582031 322.984375 157.15625 322.152344 155.792969 322.011719 C 154.273438 321.855469 153.046875 322.507812 152.503906 322.863281 C 152.3125 322.71875 152.039062 322.570312 151.675781 322.390625 C 151.257812 322.183594 150.683594 321.933594 150.492188 321.886719 C 149.4375 321.628906 148.433594 321.574219 147.515625 321.722656 C 145.777344 322.003906 145.035156 323.324219 144.320312 324.601562 C 144.234375 324.75 144.148438 324.902344 144.0625 325.050781 L 144.015625 325.136719 C 143.117188 326.679688 141.773438 329.003906 141.445312 333.332031 C 140.992188 333.757812 140.644531 334.125 140.480469 334.371094 C 139.707031 335.539062 139.070312 338.394531 140.605469 339.683594 C 144.144531 342.652344 147.5 346.203125 147.664062 346.917969 C 147.960938 348.226562 147.804688 349.871094 147.707031 351.199219 C 147.585938 352.824219 147.414062 354.183594 147.101562 355.78125 C 146.859375 357.019531 144.917969 369.695312 144.035156 375.355469 L 145.078125 375.355469 C 145.082031 375.328125 145.085938 375.296875 145.089844 375.269531 L 144.921875 375.269531 C 146.140625 368.027344 148.480469 353.320312 148.691406 351.796875 C 148.703125 351.71875 148.710938 351.660156 148.714844 351.621094 C 148.714844 351.613281 148.71875 351.601562 148.71875 351.59375 C 148.835938 350.46875 148.761719 349.660156 148.78125 349.007812 C 148.800781 348.402344 148.785156 347.855469 148.753906 347.371094 C 152.222656 347.570312 154.285156 345.769531 155.417969 344.171875 C 156.699219 342.367188 157.078125 340.472656 157.09375 340.390625 C 157.144531 340.113281 156.964844 339.84375 156.6875 339.789062 C 156.40625 339.734375 156.140625 339.917969 156.085938 340.195312 C 156.082031 340.214844 155.726562 341.976562 154.566406 343.601562 C 153.105469 345.640625 151.074219 346.554688 148.523438 346.320312 C 148.304688 345.898438 147.71875 345.0625 146.070312 343.359375 C 144.644531 341.886719 142.894531 340.261719 141.261719 338.890625 C 140.300781 338.085938 140.734375 335.847656 141.335938 334.941406 C 142.023438 333.902344 146.941406 330.125 147.566406 329.917969 C 147.953125 329.792969 149.574219 330.386719 150.445312 330.707031 C 150.976562 330.902344 151.476562 331.085938 151.882812 331.207031 C 152.445312 331.375 153.148438 331.347656 153.824219 331.320312 C 155.050781 331.269531 155.875 331.277344 156.117188 331.824219 C 156.605469 332.9375 156.335938 333.289062 155.492188 334.140625 C 154.753906 334.886719 151.917969 336.003906 148.371094 335.386719 C 148.324219 335.371094 148.273438 335.367188 148.222656 335.367188 C 148.109375 335.355469 148 335.382812 147.90625 335.441406 C 146.320312 335.984375 145.230469 336.148438 145.21875 336.148438 C 144.941406 336.191406 144.746094 336.453125 144.789062 336.734375 C 144.820312 336.964844 145 337.136719 145.214844 337.167969 C 145.265625 337.175781 145.316406 337.175781 145.367188 337.167969 C 145.40625 337.164062 146.121094 337.054688 147.25 336.730469 C 146.914062 337.414062 146.515625 338.074219 146.207031 338.269531 C 145.96875 338.421875 145.898438 338.742188 146.046875 338.980469 C 146.199219 339.222656 146.515625 339.292969 146.757812 339.140625 C 147.507812 338.664062 148.1875 337.207031 148.503906 336.453125 C 150.496094 336.75 152.140625 336.53125 153.199219 336.28125 C 154.519531 335.96875 155.652344 335.441406 156.21875 334.867188 C 156.535156 334.550781 156.8125 334.25 157.019531 333.925781 C 157.046875 335.007812 157.425781 335.820312 158.1875 336.523438 C 158.660156 336.960938 159.242188 337.238281 159.867188 337.335938 C 160.109375 337.375 160.355469 337.386719 160.609375 337.371094 C 161.566406 337.304688 162.472656 336.84375 163.089844 336.097656 C 163.253906 335.902344 163.433594 335.53125 163.625 335.050781 C 163.726562 335.167969 163.84375 335.285156 163.972656 335.394531 C 164.398438 335.75 164.921875 335.996094 165.421875 336.074219 C 165.511719 336.085938 165.605469 336.097656 165.695312 336.097656 C 166.808594 336.132812 167.875 334.828125 168.804688 333.394531 C 168.769531 334.125 168.738281 334.871094 168.730469 335.382812 C 168.722656 336.074219 168 341.0625 167.316406 342.75 C 167.078125 343.339844 166.214844 344.164062 165.304688 345.03125 C 164.167969 346.117188 162.875 347.347656 162.246094 348.644531 C 161.511719 350.164062 161.382812 357.273438 161.214844 359.464844 C 160.898438 362.378906 160.652344 366.722656 160.59375 367.964844 C 160.472656 370.390625 160.328125 372.480469 160.210938 374.90625 C 160.203125 375.054688 160.195312 375.203125 160.191406 375.355469 L 161.359375 375.355469 C 161.398438 374.082031 161.585938 372.453125 161.621094 371.179688 C 161.707031 368.355469 162.554688 354.386719 162.597656 353.007812 C 162.632812 351.835938 162.648438 350.175781 163.167969 349.097656 C 163.71875 347.964844 164.9375 346.804688 166.011719 345.777344 C 167.046875 344.789062 167.941406 343.9375 168.265625 343.140625 C 169.019531 341.269531 169.746094 336.167969 169.757812 335.394531 C 169.769531 334.28125 169.910156 331.914062 169.945312 331.289062 C 170.304688 330.425781 170.5625 329.519531 170.648438 328.742188 C 170.722656 328.121094 170.546875 327.574219 170.140625 327.160156 " fill-opacity="1" fill-rule="nonzero"/></g><path fill="#680a20" d="M 144.921875 375.269531 L 145.089844 375.269531 C 146.246094 368 148.492188 353.261719 148.691406 351.796875 C 148.480469 353.320312 146.140625 368.027344 144.921875 375.269531 " fill-opacity="1" fill-rule="nonzero"/><path fill="#680a20" d="M 148.714844 351.621094 C 148.714844 351.613281 148.71875 351.601562 148.71875 351.59375 C 148.71875 351.601562 148.714844 351.613281 148.714844 351.621094 " fill-opacity="1" fill-rule="nonzero"/><path fill="#fddf03" d="M 191.769531 316.707031 L 190.773438 316.445312 C 190.96875 315.511719 191.210938 314.269531 191.222656 313.800781 C 191.230469 313.515625 191.464844 313.292969 191.746094 313.300781 C 192.03125 313.308594 192.253906 313.542969 192.246094 313.828125 C 192.230469 314.417969 191.960938 315.804688 191.769531 316.707031 Z M 195.816406 324.96875 C 195.707031 323.554688 194.625 321.699219 194.625 321.699219 L 195.167969 319.519531 L 194.527344 318.691406 C 194.421875 316.355469 193.863281 314.796875 193.421875 313.5625 L 193.386719 313.472656 C 193.328125 313.304688 193.269531 313.136719 193.210938 312.96875 C 192.777344 311.710938 192.402344 310.621094 191.207031 310.195312 C 190.457031 309.929688 189.597656 309.820312 188.652344 309.875 C 188.414062 309.902344 187.367188 310.167969 186.964844 310.335938 C 186.914062 310.761719 186.769531 311.949219 186.363281 315.273438 L 185.3125 314.992188 L 185.765625 310.230469 C 185.429688 309.90625 184.523438 309.140625 183.273438 309.042969 C 182.835938 309.007812 181.324219 309.011719 179.667969 310.417969 L 180.011719 314.523438 L 178.878906 314.496094 L 178.570312 310.402344 C 178.339844 310.226562 177.871094 309.910156 177.328125 309.707031 C 176.703125 309.480469 175.765625 309.382812 174.996094 309.792969 C 174.378906 310.128906 173.9375 310.753906 173.679688 311.652344 C 173.671875 312.195312 173.738281 313.253906 173.820312 314.375 L 172.761719 314.351562 C 172.683594 313.234375 172.636719 312.285156 172.617188 311.832031 C 172.449219 311.554688 172.242188 311.363281 171.996094 311.289062 C 171.660156 311.195312 170.988281 311.054688 170.320312 311.039062 C 169.78125 311.023438 169.25 311.09375 168.910156 311.332031 C 168.691406 311.488281 168.582031 311.707031 168.558594 312.023438 C 168.515625 312.726562 168.601562 313.523438 168.753906 314.253906 C 168.753906 314.253906 167.542969 319.78125 167.636719 323.007812 C 167.855469 330.308594 172.304688 331.851562 171.917969 333.796875 C 171.53125 335.742188 166.84375 375.257812 166.84375 375.257812 L 183.828125 375.257812 C 183.828125 375.257812 185.410156 337.394531 185.738281 336.523438 C 186.0625 335.652344 187.253906 333.035156 188.121094 332.273438 C 188.988281 331.507812 193.105469 329.003906 193.867188 328.457031 C 194.625 327.914062 195.925781 326.386719 195.816406 324.96875 " fill-opacity="1" fill-rule="nonzero"/><path fill="#680a20" d="M 194.515625 320.550781 C 193.589844 319.421875 192.476562 318.179688 191.632812 317.339844 C 191.78125 316.664062 192.226562 314.585938 192.246094 313.828125 C 192.253906 313.542969 192.03125 313.308594 191.746094 313.300781 C 191.464844 313.292969 191.230469 313.515625 191.222656 313.800781 C 191.210938 314.285156 190.957031 315.589844 190.757812 316.53125 C 190.664062 316.457031 190.582031 316.398438 190.519531 316.367188 C 189.898438 316.03125 188.675781 316.210938 186.886719 316.519531 C 186.644531 316.5625 186.40625 316.601562 186.183594 316.636719 L 186.199219 316.457031 L 186.21875 316.457031 C 186.734375 312.21875 186.910156 310.808594 186.964844 310.335938 C 187.367188 310.167969 188.414062 309.902344 188.652344 309.875 C 189.597656 309.820312 190.457031 309.929688 191.207031 310.195312 C 192.402344 310.621094 192.777344 311.710938 193.210938 312.96875 C 193.269531 313.136719 193.328125 313.304688 193.386719 313.472656 L 193.421875 313.5625 C 193.972656 315.097656 194.707031 317.136719 194.515625 320.550781 Z M 185.144531 316.746094 C 184.765625 316.726562 184.304688 316.621094 183.855469 316.519531 C 182.667969 316.25 181.191406 315.917969 180.4375 317.03125 C 180.367188 317.136719 180.304688 317.238281 180.246094 317.339844 L 179.667969 310.417969 C 181.324219 309.011719 182.835938 309.007812 183.273438 309.042969 C 184.523438 309.140625 185.429688 309.90625 185.765625 310.230469 Z M 177.863281 320.988281 C 177.347656 321.3125 176.730469 321.410156 176.125 321.253906 C 175.464844 321.085938 174.890625 320.648438 174.554688 320.046875 C 174.40625 319.78125 174.261719 319.023438 174.136719 318.03125 C 174.019531 316.742188 173.660156 312.886719 173.679688 311.652344 C 173.9375 310.753906 174.378906 310.128906 174.996094 309.792969 C 175.765625 309.382812 176.703125 309.480469 177.328125 309.707031 C 177.871094 309.910156 178.339844 310.226562 178.570312 310.402344 L 179.105469 317.507812 C 179.238281 319.664062 178.726562 320.4375 177.863281 320.988281 Z M 171.253906 319.066406 C 170.535156 318.957031 169.675781 317.015625 169.230469 315.871094 L 169.203125 315.804688 C 169.0625 315.441406 168.925781 314.996094 168.8125 314.519531 C 168.816406 314.425781 168.796875 314.332031 168.753906 314.253906 C 168.601562 313.523438 168.515625 312.726562 168.558594 312.023438 C 168.582031 311.707031 168.691406 311.488281 168.910156 311.332031 C 169.25 311.09375 169.78125 311.023438 170.320312 311.039062 C 170.988281 311.054688 171.660156 311.195312 171.996094 311.289062 C 172.242188 311.363281 172.449219 311.554688 172.617188 311.832031 C 172.660156 312.75 172.8125 315.730469 173.101562 317.996094 C 172.957031 318.675781 171.949219 319.171875 171.253906 319.066406 Z M 196.210938 322.9375 C 196.097656 322.664062 195.820312 322.242188 195.449219 321.742188 C 195.898438 317.421875 194.992188 314.894531 194.382812 313.210938 L 194.351562 313.121094 C 194.292969 312.957031 194.238281 312.792969 194.179688 312.632812 C 193.703125 311.246094 193.210938 309.816406 191.550781 309.222656 C 190.671875 308.910156 189.675781 308.785156 188.59375 308.847656 C 188.394531 308.859375 187.785156 309.003906 187.335938 309.132812 C 186.949219 309.242188 186.652344 309.339844 186.4375 309.445312 C 185.964844 309 184.875 308.136719 183.355469 308.015625 C 181.988281 307.90625 180.433594 308.46875 179.128906 309.53125 C 178.824219 309.3125 178.300781 308.96875 177.679688 308.742188 C 177.277344 308.59375 175.855469 308.164062 174.515625 308.886719 C 173.828125 309.253906 173.304688 309.847656 172.949219 310.65625 C 172.746094 310.492188 172.523438 310.371094 172.277344 310.300781 L 172.273438 310.296875 C 172.003906 310.222656 169.605469 309.578125 168.320312 310.488281 C 167.847656 310.824219 167.578125 311.332031 167.539062 311.953125 C 167.488281 312.734375 167.574219 313.671875 167.777344 314.589844 C 167.699219 315.210938 167.414062 317.5625 167.230469 318.660156 C 167.101562 319.421875 166.90625 324.574219 167.316406 326.550781 C 167.488281 327.390625 168.21875 328.394531 169.0625 329.550781 C 169.9375 330.753906 170.929688 332.117188 171.265625 333.328125 C 171.585938 334.484375 171.164062 336.167969 171.105469 337.339844 C 170.996094 339.574219 170.0625 347.949219 169.640625 350.746094 C 169.320312 352.890625 167.261719 371.691406 166.84375 375.257812 L 167.871094 375.3125 C 167.878906 375.234375 168.160156 373.355469 168.28125 372.121094 C 169.214844 365.058594 171.042969 348.015625 171.753906 341.589844 C 171.90625 340.242188 172.570312 334.191406 172.253906 333.050781 C 171.863281 331.660156 170.816406 330.21875 169.890625 328.945312 C 169.148438 327.925781 168.449219 326.964844 168.320312 326.339844 C 167.949219 324.554688 168.125 319.519531 168.242188 318.832031 C 168.324219 318.332031 168.429688 317.589844 168.523438 316.863281 C 169.179688 318.445312 170 319.917969 171.097656 320.085938 C 171.1875 320.101562 171.28125 320.109375 171.375 320.109375 C 171.878906 320.125 172.4375 319.976562 172.921875 319.703125 C 173.066406 319.621094 173.203125 319.527344 173.324219 319.429688 C 173.425781 319.9375 173.539062 320.332031 173.660156 320.554688 C 174.136719 321.398438 174.945312 322.019531 175.875 322.253906 C 176.121094 322.316406 176.367188 322.351562 176.613281 322.355469 C 177.246094 322.375 177.867188 322.203125 178.410156 321.859375 C 179.285156 321.304688 179.800781 320.574219 180.023438 319.515625 C 180.167969 319.871094 180.386719 320.214844 180.640625 320.585938 C 181.097656 321.253906 182.113281 321.976562 183.359375 322.519531 C 184.355469 322.957031 185.9375 323.472656 187.949219 323.539062 C 188.125 324.335938 188.535156 325.894531 189.1875 326.496094 C 189.398438 326.691406 189.722656 326.675781 189.914062 326.46875 C 190.105469 326.257812 190.089844 325.933594 189.882812 325.738281 C 189.613281 325.492188 189.339844 324.769531 189.132812 324.035156 C 190.183594 324.558594 190.867188 324.796875 190.90625 324.808594 C 190.953125 324.824219 191.003906 324.832031 191.054688 324.835938 C 191.273438 324.839844 191.480469 324.703125 191.554688 324.484375 C 191.644531 324.214844 191.5 323.921875 191.234375 323.832031 C 191.222656 323.828125 190.183594 323.46875 188.714844 322.652344 C 188.636719 322.578125 188.53125 322.53125 188.417969 322.519531 C 188.367188 322.507812 188.316406 322.507812 188.265625 322.511719 C 184.667969 322.480469 182.078125 320.867188 181.484375 320 C 180.804688 319.011719 180.605469 318.617188 181.285156 317.609375 C 181.621094 317.113281 182.429688 317.253906 183.628906 317.527344 C 184.292969 317.675781 184.976562 317.828125 185.558594 317.765625 C 185.980469 317.722656 186.507812 317.628906 187.0625 317.535156 C 187.976562 317.378906 189.679688 317.082031 190.035156 317.273438 C 190.613281 317.59375 194.777344 322.199219 195.269531 323.34375 C 195.699219 324.34375 195.726562 326.625 194.636719 327.242188 C 192.789062 328.292969 190.773438 329.582031 189.109375 330.769531 C 187.183594 332.148438 186.460938 332.863281 186.167969 333.242188 C 183.617188 333.007812 181.78125 331.742188 180.710938 329.472656 C 179.859375 327.667969 179.820312 325.871094 179.820312 325.851562 C 179.820312 325.566406 179.585938 325.339844 179.304688 325.339844 C 179.019531 325.34375 178.792969 325.578125 178.796875 325.863281 C 178.796875 325.945312 178.832031 327.875 179.769531 329.882812 C 180.601562 331.660156 182.308594 333.800781 185.753906 334.234375 C 185.636719 334.703125 185.523438 335.238281 185.433594 335.839844 C 185.339844 336.484375 185.121094 337.265625 185.035156 338.394531 C 184.980469 339.117188 183.945312 367.152344 183.828125 375.261719 L 184.382812 375.289062 L 184.828125 375.308594 C 184.871094 368.183594 185.738281 345.1875 185.878906 342.804688 C 185.976562 341.179688 185.929688 339.808594 186.101562 338.1875 C 186.242188 336.863281 186.382812 335.21875 186.910156 333.984375 C 187.195312 333.308594 191.132812 330.421875 195.140625 328.140625 C 196.882812 327.148438 196.765625 324.226562 196.210938 322.9375 " fill-opacity="1" fill-rule="nonzero"/><g clip-path="url(#f18f6a3aa3)"><path fill="#ffffff" d="M 108.394531 75.996094 C 106.796875 74.398438 104.199219 74.398438 102.601562 75.996094 L 20.652344 157.941406 C 19.054688 159.539062 19.054688 162.140625 20.652344 163.738281 L 102.601562 245.683594 C 103.398438 246.488281 104.445312 246.890625 105.496094 246.890625 C 106.542969 246.890625 107.59375 246.488281 108.394531 245.691406 C 109.992188 244.09375 109.992188 241.496094 108.394531 239.898438 L 29.339844 160.84375 L 108.386719 81.796875 C 109.992188 80.191406 109.992188 77.601562 108.394531 75.996094 Z M 108.394531 75.996094 " fill-opacity="1" fill-rule="nonzero"/></g><g clip-path="url(#4493591456)"><path fill="#ffffff" d="M 354.246094 157.941406 L 272.296875 75.996094 C 270.699219 74.398438 268.101562 74.398438 266.503906 75.996094 C 264.902344 77.59375 264.902344 80.191406 266.503906 81.789062 L 345.550781 160.84375 L 266.503906 239.890625 C 264.902344 241.488281 264.902344 244.085938 266.503906 245.683594 C 267.296875 246.488281 268.347656 246.890625 269.394531 246.890625 C 270.445312 246.890625 271.492188 246.488281 272.296875 245.691406 L 354.246094 163.746094 C 355.84375 162.140625 355.84375 159.550781 354.246094 157.941406 Z M 354.246094 157.941406 " fill-opacity="1" fill-rule="nonzero"/></g><g fill="#ffffff" fill-opacity="1"><g transform="translate(73.433701, 286.393362)"><g><path d="M 2.75 -2.71875 C 2.75 -2.09375 2.695312 -1.628906 2.59375 -1.328125 C 2.488281 -1.023438 2.273438 -0.765625 1.953125 -0.546875 C 1.628906 -0.328125 1.082031 -0.0820312 0.3125 0.1875 L 1.9375 3.1875 C 3.207031 2.769531 4.191406 2.335938 4.890625 1.890625 C 5.585938 1.441406 6.085938 0.90625 6.390625 0.28125 C 6.691406 -0.34375 6.84375 -1.144531 6.84375 -2.125 L 6.84375 -21.234375 L 2.75 -21.234375 Z M 2.75 -2.71875 "/></g></g></g><g fill="#ffffff" fill-opacity="1"><g transform="translate(82.612542, 286.393362)"><g><path d="M 2.375 -7.71875 C 2.375 -6.195312 2.726562 -4.820312 3.4375 -3.59375 C 4.144531 -2.363281 5.148438 -1.398438 6.453125 -0.703125 C 7.765625 -0.00390625 9.285156 0.34375 11.015625 0.34375 C 12.765625 0.34375 14.304688 -0.00390625 15.640625 -0.703125 C 16.972656 -1.398438 18.003906 -2.359375 18.734375 -3.578125 C 19.460938 -4.796875 19.828125 -6.175781 19.828125 -7.71875 L 19.828125 -21.234375 L 15.734375 -21.234375 L 15.734375 -8.015625 C 15.734375 -6.378906 15.3125 -5.128906 14.46875 -4.265625 C 13.625 -3.398438 12.492188 -2.96875 11.078125 -2.96875 C 9.660156 -2.96875 8.53125 -3.390625 7.6875 -4.234375 C 6.851562 -5.078125 6.4375 -6.335938 6.4375 -8.015625 L 6.4375 -21.234375 L 2.34375 -21.234375 Z M 2.375 -7.71875 "/></g></g></g><g fill="#ffffff" fill-opacity="1"><g transform="translate(104.779127, 286.393362)"><g><path d="M 6.6875 -21.234375 L 2.65625 -21.234375 L 2.65625 0 L 16.671875 0 L 16.046875 -3.15625 L 6.6875 -3.15625 Z M 6.6875 -21.234375 "/></g></g></g><g fill="#ffffff" fill-opacity="1"><g transform="translate(121.763102, 286.393362)"><g><path d="M 2.65625 -21.234375 L 2.65625 0 L 6.6875 0 L 6.6875 -21.234375 Z M 2.65625 -21.234375 "/></g></g></g><g fill="#ffffff" fill-opacity="1"><g transform="translate(131.098039, 286.393362)"><g><path d="M 4.375 0 L 6.25 -5 L 14.296875 -5 L 16.203125 0.3125 L 20.265625 -0.25 L 12.015625 -21.234375 L 8.578125 -21.234375 L 0.3125 0 Z M 10.203125 -15.671875 L 13.046875 -8.265625 L 7.4375 -8.265625 Z M 10.203125 -15.671875 "/></g></g></g><g fill="#ffffff" fill-opacity="1"><g transform="translate(151.672377, 286.393362)"><g/></g></g><g fill="#ffffff" fill-opacity="1"><g transform="translate(158.696996, 286.393362)"><g><path d="M 9.015625 -7.40625 C 10.578125 -7.40625 12.015625 -7.65625 13.328125 -8.15625 C 14.640625 -8.664062 15.695312 -9.453125 16.5 -10.515625 C 17.300781 -11.578125 17.703125 -12.878906 17.703125 -14.421875 C 17.703125 -16.734375 16.925781 -18.445312 15.375 -19.5625 C 13.820312 -20.675781 11.796875 -21.234375 9.296875 -21.234375 L 2.65625 -21.234375 L 2.65625 0 L 6.6875 0 L 6.6875 -7.40625 Z M 9.171875 -17.859375 C 10.566406 -17.859375 11.625 -17.570312 12.34375 -17 C 13.0625 -16.425781 13.421875 -15.484375 13.421875 -14.171875 C 13.335938 -13.023438 12.929688 -12.164062 12.203125 -11.59375 C 11.472656 -11.019531 10.484375 -10.734375 9.234375 -10.734375 L 6.6875 -10.734375 L 6.6875 -17.859375 Z M 9.171875 -17.859375 "/></g></g></g><g fill="#ffffff" fill-opacity="1"><g transform="translate(177.179556, 286.393362)"><g><path d="M 2.65625 -21.234375 L 2.65625 0 L 6.6875 0 L 6.6875 -21.234375 Z M 2.65625 -21.234375 "/></g></g></g><g fill="#ffffff" fill-opacity="1"><g transform="translate(186.514494, 286.393362)"><g><path d="M 16.515625 0 L 20.578125 0 L 20.578125 -21.234375 L 16.515625 -21.234375 L 16.515625 -7.0625 L 6.6875 -21.234375 L 2.65625 -21.234375 L 2.65625 0 L 6.6875 0 L 6.6875 -14.203125 Z M 16.515625 0 "/></g></g></g><g fill="#ffffff" fill-opacity="1"><g transform="translate(209.742581, 286.393362)"><g><path d="M 15.046875 -21.234375 L 15.046875 -12.234375 L 6.6875 -12.234375 L 6.6875 -21.390625 L 2.65625 -21.234375 L 2.65625 0 L 6.6875 0 L 6.6875 -8.984375 L 15.046875 -8.984375 L 15.046875 0 L 19.078125 0 L 19.078125 -21.234375 Z M 15.046875 -21.234375 "/></g></g></g><g fill="#ffffff" fill-opacity="1"><g transform="translate(231.472083, 286.393362)"><g><path d="M 6.6875 -3.15625 L 6.6875 -9.109375 L 14.265625 -9.109375 L 13.609375 -12.328125 L 6.6875 -12.328125 L 6.6875 -18.046875 L 15.953125 -18.046875 L 15.328125 -21.234375 L 2.65625 -21.234375 L 2.65625 0 L 17.515625 0 L 16.859375 -3.15625 Z M 6.6875 -3.15625 "/></g></g></g><g fill="#ffffff" fill-opacity="1"><g transform="translate(249.611222, 286.393362)"><g><path d="M 2.65625 -21.234375 L 2.65625 0 L 6.6875 0 L 6.6875 -21.234375 Z M 2.65625 -21.234375 "/></g></g></g><g fill="#ffffff" fill-opacity="1"><g transform="translate(258.946149, 286.393362)"><g><path d="M 6.6875 0 L 6.6875 -8.046875 L 10.484375 -8.046875 L 14.984375 0 L 19.296875 0 L 14.078125 -9.109375 C 15.179688 -9.648438 16.0625 -10.398438 16.71875 -11.359375 C 17.375 -12.316406 17.703125 -13.429688 17.703125 -14.703125 C 17.703125 -16.828125 16.914062 -18.445312 15.34375 -19.5625 C 13.769531 -20.675781 11.753906 -21.234375 9.296875 -21.234375 L 2.65625 -21.234375 L 2.65625 0 Z M 9.171875 -17.859375 C 12.003906 -17.859375 13.421875 -16.742188 13.421875 -14.515625 C 13.421875 -13.429688 13.039062 -12.632812 12.28125 -12.125 C 11.519531 -11.613281 10.503906 -11.359375 9.234375 -11.359375 L 6.6875 -11.359375 L 6.6875 -17.859375 Z M 9.171875 -17.859375 "/></g></g></g><g fill="#ffffff" fill-opacity="1"><g transform="translate(278.552647, 286.393362)"><g><path d="M 11.484375 -21.734375 C 9.441406 -21.691406 7.628906 -21.191406 6.046875 -20.234375 C 4.472656 -19.273438 3.253906 -17.953125 2.390625 -16.265625 C 1.523438 -14.578125 1.09375 -12.660156 1.09375 -10.515625 C 1.09375 -8.460938 1.503906 -6.609375 2.328125 -4.953125 C 3.148438 -3.296875 4.34375 -1.984375 5.90625 -1.015625 C 7.476562 -0.046875 9.335938 0.4375 11.484375 0.4375 C 13.546875 0.394531 15.363281 -0.0976562 16.9375 -1.046875 C 18.507812 -1.992188 19.734375 -3.304688 20.609375 -4.984375 C 21.484375 -6.660156 21.921875 -8.578125 21.921875 -10.734375 C 21.921875 -12.796875 21.507812 -14.660156 20.6875 -16.328125 C 19.863281 -17.992188 18.660156 -19.3125 17.078125 -20.28125 C 15.492188 -21.25 13.628906 -21.734375 11.484375 -21.734375 Z M 5.3125 -10.546875 C 5.3125 -12.085938 5.597656 -13.445312 6.171875 -14.625 C 6.742188 -15.800781 7.5 -16.707031 8.4375 -17.34375 C 9.382812 -17.976562 10.421875 -18.296875 11.546875 -18.296875 C 12.773438 -18.296875 13.859375 -17.972656 14.796875 -17.328125 C 15.734375 -16.679688 16.453125 -15.785156 16.953125 -14.640625 C 17.453125 -13.492188 17.703125 -12.191406 17.703125 -10.734375 C 17.703125 -9.046875 17.425781 -7.613281 16.875 -6.4375 C 16.320312 -5.269531 15.570312 -4.398438 14.625 -3.828125 C 13.675781 -3.253906 12.617188 -2.96875 11.453125 -2.96875 C 10.203125 -2.96875 9.113281 -3.285156 8.1875 -3.921875 C 7.269531 -4.554688 6.5625 -5.445312 6.0625 -6.59375 C 5.5625 -7.75 5.3125 -9.066406 5.3125 -10.546875 Z M 5.3125 -10.546875 "/></g></g></g></svg>